<svg class="animated" id="freepik_stories-fireplace" xmlns="http://www.w3.org/2000/svg" viewBox="0 0 750 500" version="1.1" xmlns:xlink="http://www.w3.org/1999/xlink" xmlns:svgjs="http://svgjs.com/svgjs"><style>svg#freepik_stories-fireplace:not(.animated) .animable {opacity: 0;}svg#freepik_stories-fireplace.animated #freepik--background-complete--inject-32 {animation: 1s 1 forwards linear slideUp;animation-delay: 0s;}svg#freepik_stories-fireplace.animated #freepik--Character--inject-32 {animation: 3s Infinite  linear floating;animation-delay: 0s;}            @keyframes slideUp {                0% {                    opacity: 0;                    transform: translateY(30px);                }                100% {                    opacity: 1;                    transform: inherit;                }            }                    @keyframes floating {                0% {                    opacity: 1;                    transform: translateY(0px);                }                50% {                    transform: translateY(-10px);                }                100% {                    opacity: 1;                    transform: translateY(0px);                }            }        </style><g id="freepik--background-complete--inject-32" class="animable animator-active" style="transform-origin: 366.584px 210.259px;"><g id="elf2ccj3az76c"><rect x="622.91" y="362.29" width="35.16" height="11.19" style="fill: rgb(235, 235, 235); transform-origin: 640.49px 367.885px; transform: rotate(180deg);" class="animable"></rect></g><path d="M642.52,387.59c5.84-.1,20.81-.35,26.45-.41l8.71-.05-.46.46,0-11.19.5.5c-5.84,0-20.73-.07-26.37-.15l-8.79-.11.24-.24-.24,11.19Zm0,0-.24-11.19v-.23h.24c4.39-.06,13.2-.16,17.58-.19l17.58-.07h.5v.5l0,11.19v.46h-.45l-8.87-.05c-5.6-.06-20.5-.31-26.29-.41Z" style="fill: rgb(235, 235, 235); transform-origin: 660.23px 381.985px;" id="elkzb3kogente" class="animable"></path><path d="M486.43,212.72c5.84-.1,20.81-.35,26.44-.42l8.71,0-.45.46,0-11.19.49.5L504,202c-4.38,0-13.21-.14-17.58-.2l.23-.23-.23,11.19Zm0,0-.24-11.19v-.24h.24c4.38-.06,13.19-.16,17.58-.2l17.57-.06h.51v.51l0,11.19v.45h-.46l-8.86,0c-5.6-.06-20.51-.32-26.29-.41Z" style="fill: rgb(235, 235, 235); transform-origin: 504.14px 207.105px;" id="elk7oqdazc4vj" class="animable"></path><path d="M161.29,290.43c5.84-.1,20.81-.35,26.44-.41l8.71,0-.45.45-.05-11.19.5.5c-5.84,0-20.72-.07-26.36-.15l-8.79-.11.23-.24-.23,11.19Zm0,0-.24-11.19V279h.25c4.38-.05,13.19-.16,17.57-.19l17.58-.07h.5v.5l0,11.19v.46h-.46l-8.87-.05c-5.6-.06-20.5-.31-26.28-.41Z" style="fill: rgb(235, 235, 235); transform-origin: 179px 284.815px;" id="el7t6xv20flen" class="animable"></path><path d="M506,226.83c5.84-.1,20.81-.35,26.45-.42l8.71,0-.46.46,0-11.19.5.5c-5.84,0-20.73-.08-26.37-.16l-8.79-.11.24-.23L506,226.83Zm0,0-.24-11.19v-.24H506c4.39-.06,13.19-.16,17.58-.2l17.58-.06h.5v.51l-.05,11.19v.45h-.45l-8.87,0c-5.6-.06-20.51-.32-26.29-.41Z" style="fill: rgb(235, 235, 235); transform-origin: 523.71px 221.215px;" id="eli36ub24u9bd" class="animable"></path><g id="elmwix8zms9tl"><rect x="525.57" y="201.53" width="35.16" height="11.19" style="fill: rgb(235, 235, 235); transform-origin: 543.15px 207.125px; transform: rotate(180deg);" class="animable"></rect></g><g id="el05qptk4mzlt"><rect x="72.32" y="376.4" width="35.16" height="11.19" style="fill: rgb(235, 235, 235); transform-origin: 89.9px 381.995px; transform: rotate(180deg);" class="animable"></rect></g><g id="elq7wnr7pu2d"><rect x="91.93" y="165.18" width="35.16" height="11.19" style="fill: rgb(235, 235, 235); transform-origin: 109.51px 170.775px; transform: rotate(180deg);" class="animable"></rect></g><path d="M72.32,190.48c5.84-.1,20.81-.35,26.45-.42l8.71,0-.46.46,0-11.19.5.5c-5.84,0-20.73-.08-26.37-.16l-8.79-.11.24-.23-.24,11.19Zm0,0-.24-11.19v-.24h.24c4.39-.06,13.2-.16,17.58-.19l17.58-.07h.5v.5l0,11.19v.45h-.45l-8.87,0c-5.6-.06-20.5-.31-26.29-.41Z" style="fill: rgb(235, 235, 235); transform-origin: 90.03px 184.86px;" id="elwamuxi9ggf" class="animable"></path><path d="M622.91,61c5.84-.1,20.81-.35,26.45-.42l8.71,0-.46.46,0-11.19.5.5c-5.84,0-20.73-.08-26.37-.16L622.91,50l.24-.23L622.91,61Zm0,0-.24-11.19v-.24h.24c4.39-.06,13.19-.16,17.58-.19l17.58-.07h.5v.5L658.52,61v.45h-.45l-8.87,0c-5.6-.06-20.51-.31-26.29-.41Z" style="fill: rgb(235, 235, 235); transform-origin: 640.62px 55.38px;" id="elx0dtmwo7cu" class="animable"></path><rect x="609.23" y="117.84" width="66.33" height="90.37" style="fill: rgb(255, 255, 255); transform-origin: 642.395px 163.025px;" id="el0vramndq1fa" class="animable"></rect><rect x="646.84" y="123.52" width="17.32" height="74.07" style="fill: rgb(199, 199, 199); transform-origin: 655.5px 160.555px;" id="elx2pbagqojz" class="animable"></rect><path d="M679,211.66V114.39H605.79v97.27Zm-69.78-93.82h66.33v90.37H609.23Z" style="fill: rgb(235, 235, 235); transform-origin: 642.395px 163.025px;" id="elb31p85kzvur" class="animable"></path><rect x="629.16" y="137.76" width="26.48" height="50.53" style="fill: rgb(235, 235, 235); transform-origin: 642.4px 163.025px;" id="elvau281bb49c" class="animable"></rect><g id="eldh62y3t5uwn"><rect x="602.95" y="114.39" width="2.83" height="97.27" style="fill: rgb(219, 219, 219); transform-origin: 604.365px 163.025px; transform: rotate(180deg);" class="animable"></rect></g><rect x="515.66" y="46.9" width="66.33" height="90.37" style="fill: rgb(255, 255, 255); transform-origin: 548.825px 92.085px;" id="elibd30gtxxl" class="animable"></rect><rect x="538.23" y="106.47" width="36.39" height="21.76" style="fill: rgb(235, 235, 235); transform-origin: 556.425px 117.35px;" id="el2plr15u6648" class="animable"></rect><path d="M585.43,140.72V43.45H512.21v97.27ZM515.66,46.9H582v90.37H515.66Z" style="fill: rgb(235, 235, 235); transform-origin: 548.82px 92.085px;" id="els45lkb3vjs" class="animable"></path><rect x="535.58" y="66.82" width="26.48" height="50.53" style="fill: rgb(199, 199, 199); transform-origin: 548.82px 92.085px;" id="el8vtav56u95s" class="animable"></rect><g id="elhyviv163yb7"><rect x="509.38" y="43.45" width="2.83" height="97.27" style="fill: rgb(219, 219, 219); transform-origin: 510.795px 92.085px; transform: rotate(180deg);" class="animable"></rect></g><g id="elfkj26epm5"><circle cx="110.53" cy="88.82" r="45.38" style="fill: rgb(235, 235, 235); transform-origin: 110.53px 88.82px; transform: rotate(-73.57deg);" class="animable"></circle></g><circle cx="112.6" cy="89.83" r="43.3" style="fill: rgb(219, 219, 219); transform-origin: 112.6px 89.83px;" id="eljkrjw9aq0rk" class="animable"></circle><g id="ellnsvk3vf8f"><circle cx="112.6" cy="89.83" r="40.56" style="fill: rgb(255, 255, 255); transform-origin: 112.6px 89.83px; transform: rotate(-81.05deg);" class="animable"></circle></g><g id="elhf49yl94nsh"><path d="M152.25,81.22c-18.47,11.2-48.83,29.56-65.8,39.62a40.59,40.59,0,0,1-11.08-14.9l56.12-52A40.63,40.63,0,0,1,152.25,81.22Z" style="fill: rgb(235, 235, 235); opacity: 0.5; transform-origin: 113.81px 87.39px;" class="animable"></path></g><g id="elnd9pribvqqk"><path d="M153.14,91.25a40.34,40.34,0,0,1-2.68,13.18L99.87,128.36a40.75,40.75,0,0,1-6.39-2.75C108.76,116.78,136.69,100.71,153.14,91.25Z" style="fill: rgb(235, 235, 235); opacity: 0.5; transform-origin: 123.31px 109.805px;" class="animable"></path></g><rect x="112.21" y="52.21" width="0.78" height="6.15" style="fill: rgb(199, 199, 199); transform-origin: 112.6px 55.285px;" id="elt6ive8fkvga" class="animable"></rect><g id="el7n0n9yeshym"><rect x="94.94" y="56.84" width="0.78" height="6.15" style="fill: rgb(199, 199, 199); transform-origin: 95.33px 59.915px; transform: rotate(-30deg);" class="animable"></rect></g><g id="eleuqc586iwya"><rect x="82.3" y="69.49" width="0.78" height="6.15" style="fill: rgb(199, 199, 199); transform-origin: 82.69px 72.565px; transform: rotate(-60deg);" class="animable"></rect></g><rect x="74.99" y="89.44" width="6.15" height="0.78" style="fill: rgb(199, 199, 199); transform-origin: 78.065px 89.83px;" id="el8msjkl1ypk8" class="animable"></rect><g id="el81dnvop1f9r"><rect x="79.61" y="106.71" width="6.15" height="0.78" style="fill: rgb(199, 199, 199); transform-origin: 82.685px 107.1px; transform: rotate(-30.01deg);" class="animable"></rect></g><g id="el5hr0a8x0ovb"><rect x="92.26" y="119.36" width="6.15" height="0.78" style="fill: rgb(199, 199, 199); transform-origin: 95.335px 119.75px; transform: rotate(-60.03deg);" class="animable"></rect></g><rect x="112.21" y="121.3" width="0.78" height="6.15" style="fill: rgb(199, 199, 199); transform-origin: 112.6px 124.375px;" id="elp7fwkh066r" class="animable"></rect><g id="elihooo46xjb"><rect x="129.48" y="116.68" width="0.78" height="6.15" style="fill: rgb(199, 199, 199); transform-origin: 129.87px 119.755px; transform: rotate(-30deg);" class="animable"></rect></g><g id="elq29mlkmykoj"><rect x="142.13" y="104.03" width="0.78" height="6.15" style="fill: rgb(199, 199, 199); transform-origin: 142.52px 107.105px; transform: rotate(-60deg);" class="animable"></rect></g><rect x="144.08" y="89.44" width="6.15" height="0.78" style="fill: rgb(199, 199, 199); transform-origin: 147.155px 89.83px;" id="el4zgh4z2t926" class="animable"></rect><g id="el6kxa26epava"><rect x="139.45" y="72.17" width="6.15" height="0.78" style="fill: rgb(199, 199, 199); transform-origin: 142.525px 72.56px; transform: rotate(-30deg);" class="animable"></rect></g><g id="eltzdb44dxfk"><rect x="126.8" y="59.52" width="6.15" height="0.78" style="fill: rgb(199, 199, 199); transform-origin: 129.875px 59.91px; transform: rotate(-60.03deg);" class="animable"></rect></g><polygon points="113.19 55 114.53 92.57 110.68 92.52 112.15 54.98 113.19 55" style="fill: rgb(199, 199, 199); transform-origin: 112.605px 73.775px;" id="ela7xw3gbf7eo" class="animable"></polygon><polygon points="136.6 76.73 111.32 92.86 109.48 89.48 136.1 75.81 136.6 76.73" style="fill: rgb(166, 166, 166); transform-origin: 123.04px 84.335px;" id="ellepqlphin4q" class="animable"></polygon><path d="M113.92,89.83a1.32,1.32,0,1,1-1.32-1.31A1.32,1.32,0,0,1,113.92,89.83Z" style="fill: rgb(199, 199, 199); transform-origin: 112.6px 89.84px;" id="eli0zppo78fc" class="animable"></path></g><g id="freepik--Floor--inject-32" class="animable" style="transform-origin: 375px 452.35px;"><path d="M71,452.35c194.77-.61,413.25-.62,608,0-194.77.62-413.25.61-608,0Z" style="fill: rgb(38, 50, 56); transform-origin: 375px 452.35px;" id="elug8rcz3mw6r" class="animable"></path></g><g id="freepik--Fireplace--inject-32" class="animable" style="transform-origin: 339.38px 226.175px;"><rect x="210.3" width="258.17" height="186.29" style="fill: rgb(239, 71, 111); transform-origin: 339.385px 93.145px;" id="elkv6ol7vwdxa" class="animable"></rect><g id="elq5xzgj8fr8r"><rect x="210.3" width="258.17" height="186.29" style="opacity: 0.4; transform-origin: 339.385px 93.145px;" class="animable"></rect></g><g id="elhzwnbskjbmq"><polygon points="468.47 186.29 210.3 186.29 210.3 178.16 468.47 182.09 468.47 186.29" style="opacity: 0.1; transform-origin: 339.385px 182.225px;" class="animable"></polygon></g><g id="el41sz3hdxi3g"><g style="opacity: 0.1; transform-origin: 341.46px 93.375px;" class="animable"><g id="elvd4gmazcgr"><rect x="392.15" y="19.62" width="35.16" height="11.19" class="animable" style="transform-origin: 409.73px 25.215px; transform: rotate(180deg);"></rect></g><path d="M411.76,44.92c5.84-.09,20.82-.34,26.45-.41l8.71,0-.45.45-.05-11.19.5.5c-5.84,0-20.73-.07-26.37-.15L411.76,34l.24-.24-.24,11.19Zm0,0-.23-11.19V33.5h.24c4.39-.06,13.2-.16,17.58-.2l17.58-.07h.5v.5l0,11.19v.46h-.46l-8.87,0c-5.6-.06-20.5-.32-26.29-.42Z" id="elkufhzsqgoy" class="animable" style="transform-origin: 429.48px 39.305px;"></path><path d="M292.35,100.21c5.84-.1,20.81-.35,26.45-.41l8.71,0-.46.46L327,89l.5.5c-5.84,0-20.73-.07-26.37-.15l-8.79-.11.24-.24-.24,11.19Zm0,0L292.11,89v-.23h.24c4.39,0,13.19-.16,17.58-.19l17.58-.07h.5V89L328,100.21v.46h-.45l-8.87,0c-5.6-.06-20.51-.31-26.29-.41Z" id="el19clcbagjk9j" class="animable" style="transform-origin: 310.06px 94.59px;"></path><path d="M235.72,54.89c5.84-.1,20.81-.35,26.45-.42l8.71,0-.46.46,0-11.19.5.49c-5.84,0-20.73-.07-26.37-.15l-8.79-.11.24-.23-.24,11.19Zm0,0-.23-11.19v-.24h.24c4.39-.06,13.2-.16,17.58-.2l17.58-.06h.5v.51l0,11.19v.45h-.45l-8.87,0c-5.6-.06-20.5-.32-26.29-.41Z" id="elclac4xb10p" class="animable" style="transform-origin: 253.44px 49.275px;"></path><path d="M312,114.32c5.84-.1,20.81-.35,26.45-.41l8.71,0-.46.46,0-11.19.5.5c-5.84,0-20.73-.07-26.37-.15l-8.79-.11.24-.24L312,114.32Zm0,0-.24-11.19v-.23H312c4.39,0,13.2-.16,17.58-.19l17.58-.07h.5v.5l0,11.19v.46h-.45l-8.87,0c-5.6-.06-20.5-.31-26.29-.41Z" id="elt894ms7eoy" class="animable" style="transform-origin: 329.71px 108.715px;"></path><g id="el9z5exyliq6d"><rect x="331.5" y="89.02" width="35.16" height="11.19" class="animable" style="transform-origin: 349.08px 94.615px; transform: rotate(180deg);"></rect></g><g id="elgc87867gn0k"><rect x="411.89" y="121.09" width="35.16" height="11.19" class="animable" style="transform-origin: 429.47px 126.685px; transform: rotate(180deg);"></rect></g><g id="elj2hf70envl8"><rect x="235.85" y="155.94" width="35.16" height="11.19" class="animable" style="transform-origin: 253.43px 161.535px; transform: rotate(180deg);"></rect></g></g></g><rect x="168.26" y="398.68" width="342.24" height="11.36" style="fill: rgb(239, 71, 111); transform-origin: 339.38px 404.36px;" id="elv0lde5z6lsn" class="animable"></rect><g id="el9lukrfvjc7v"><rect x="168.26" y="398.68" width="342.24" height="11.36" style="opacity: 0.4; transform-origin: 339.38px 404.36px;" class="animable"></rect></g><rect x="190.58" y="230.14" width="297.61" height="168.67" style="fill: rgb(239, 71, 111); transform-origin: 339.385px 314.475px;" id="elma6fkm1q6l" class="animable"></rect><g id="el6aakdeh5nyw"><rect x="190.58" y="230.14" width="297.61" height="168.67" style="opacity: 0.5; transform-origin: 339.385px 314.475px;" class="animable"></rect></g><g id="elfifygq77jm"><polygon points="488.19 234.08 190.58 241.06 190.58 230.14 488.19 230.14 488.19 234.08" style="opacity: 0.1; transform-origin: 339.385px 235.6px;" class="animable"></polygon></g><g id="elv50sydhw0qk"><g style="opacity: 0.1; transform-origin: 343.64px 303.885px;" class="animable"><g id="eleqti337kkw4"><rect x="213.38" y="242.18" width="35.16" height="11.19" class="animable" style="transform-origin: 230.96px 247.775px; transform: rotate(180deg);"></rect></g><path d="M233,267.48c5.84-.1,20.81-.35,26.45-.42l8.71,0-.46.46,0-11.19.5.5c-5.84,0-20.73-.08-26.37-.16l-8.79-.11.24-.23L233,267.48Zm0,0-.24-11.19v-.24H233c4.39-.06,13.19-.16,17.58-.2l17.58-.06h.5v.51l0,11.19v.45h-.45l-8.87,0c-5.6-.06-20.51-.32-26.29-.41Z" id="el0ew0pgwnrtud" class="animable" style="transform-origin: 250.71px 261.865px;"></path><path d="M399.6,296c5.84-.1,20.81-.35,26.44-.42l8.71,0-.45.46-.05-11.19.5.5c-5.83,0-20.72-.08-26.36-.16l-8.79-.11.23-.23L399.6,296Zm0,0-.24-11.19v-.24h.25c4.38-.06,13.19-.16,17.57-.2l17.58-.06h.5v.51l0,11.19v.45h-.46l-8.86,0c-5.61-.06-20.51-.32-26.29-.41Z" id="el2gw189amxtl" class="animable" style="transform-origin: 417.31px 290.385px;"></path><path d="M419.21,310.14c5.84-.1,20.81-.35,26.44-.42l8.72,0-.46.46,0-11.19.5.5c-5.84,0-20.73-.08-26.37-.16l-8.79-.11.24-.23-.24,11.19Zm0,0L419,299v-.24h.24c4.38-.06,13.19-.16,17.58-.2l17.58-.06h.5V299l0,11.19v.45h-.45l-8.87,0c-5.6-.06-20.51-.32-26.29-.41Z" id="elu3zo1ydvykd" class="animable" style="transform-origin: 436.95px 304.57px;"></path><g id="elxa1r1zxd8fp"><rect x="438.74" y="284.84" width="35.16" height="11.19" class="animable" style="transform-origin: 456.32px 290.435px; transform: rotate(180deg);"></rect></g><g id="elbmffidfehto"><rect x="233.12" y="354.4" width="35.16" height="11.19" class="animable" style="transform-origin: 250.7px 359.995px; transform: rotate(180deg);"></rect></g></g></g><rect x="158.96" y="410.04" width="360.84" height="42.31" style="fill: rgb(239, 71, 111); transform-origin: 339.38px 431.195px;" id="elibgym4s0e5q" class="animable"></rect><g id="elh04eacps846"><rect x="158.96" y="410.04" width="360.84" height="42.31" style="opacity: 0.5; transform-origin: 339.38px 431.195px;" class="animable"></rect></g><g id="elccgs82s299g"><rect x="169.44" y="419.59" width="339.88" height="24.3" style="opacity: 0.1; transform-origin: 339.38px 431.74px;" class="animable"></rect></g><path d="M387.38,337.12v51.69H288.59V337.12a49.4,49.4,0,0,1,98.79,0Z" style="fill: rgb(239, 71, 111); transform-origin: 337.985px 338.616px;" id="elxs32re67yml" class="animable"></path><path d="M416.3,339.77v58.76h-22V341.07A54.91,54.91,0,0,0,286,328.44a55.2,55.2,0,0,0-1.51,12.63v57.46h-22V339.77a76.92,76.92,0,0,1,153.84,0Z" style="fill: rgb(239, 71, 111); transform-origin: 339.41px 330.709px;" id="ela463hpb5f0j" class="animable"></path><g id="el01n4qsolaapp"><path d="M416.3,339.77v58.76h-22V341.07A54.91,54.91,0,0,0,286,328.44a55.2,55.2,0,0,0-1.51,12.63v57.46h-22V339.77a76.92,76.92,0,0,1,153.84,0Z" style="opacity: 0.4; transform-origin: 339.41px 330.709px;" class="animable"></path></g><g id="el6lmam7un1gd"><path d="M392.76,328.41a54.91,54.91,0,0,0-106.78,0,46.84,46.84,0,0,1,13.85-34c10.4-10.72,25-15.85,39.8-15.84s31.14,6.29,41,18A53,53,0,0,1,392.76,328.41Z" style="opacity: 0.1; transform-origin: 339.367px 303.49px;" class="animable"></path></g><path d="M394.3,341.07v57.46H284.47V341.07a54.92,54.92,0,0,1,109.83,0Z" style="fill: rgb(239, 71, 111); transform-origin: 339.385px 342.711px;" id="elhrl9rroc4u6" class="animable"></path><g id="elzaudk96miqe"><path d="M394.3,341.07v57.46H284.47V341.07a54.92,54.92,0,0,1,109.83,0Z" style="opacity: 0.7; transform-origin: 339.385px 342.711px;" class="animable"></path></g><g id="elsowqw2a8d6g"><circle cx="339.38" cy="351.83" r="45" style="fill: rgb(239, 71, 111); opacity: 0.1; transform-origin: 339.38px 351.83px;" class="animable"></circle></g><g id="elal12nqcyoxq"><circle cx="339.38" cy="357.22" r="34.72" style="fill: rgb(239, 71, 111); opacity: 0.1; transform-origin: 339.38px 357.22px; transform: rotate(-76.92deg);" class="animable"></circle></g><path d="M343.33,397.68q-.07.46-.18.87H298.42c-.5-4.25.93-9.43,2.46-10.41,1.9-1.22,28.16,2.34,37.75,3.68l1.35.2,2.12.3,0,.1h0a10,10,0,0,1,1.13,3.15,7.29,7.29,0,0,1,.09.77A8.35,8.35,0,0,1,343.33,397.68Z" style="fill: rgb(239, 71, 111); transform-origin: 320.835px 393.22px;" id="elhzkw6if7vn" class="animable"></path><g id="elxqcq0y46de"><path d="M343.33,397.68q-.07.46-.18.87H298.42c-.5-4.25.93-9.43,2.46-10.41,1.9-1.22,28.16,2.34,37.75,3.68l1.35.2,2.12.3,0,.1h0a10,10,0,0,1,1.13,3.15,7.29,7.29,0,0,1,.09.77A8.35,8.35,0,0,1,343.33,397.68Z" style="opacity: 0.49; transform-origin: 320.835px 393.22px;" class="animable"></path></g><g id="elrf9kdnn2qfb"><path d="M303.7,396.54a18.88,18.88,0,0,1-.31,2h-4.67a14.79,14.79,0,0,1-.08-3c.27-3.86,1.45-6.72,2.42-6.94C302.24,388.31,304.14,392.2,303.7,396.54Z" style="fill: rgb(255, 255, 255); opacity: 0.2; transform-origin: 301.182px 393.562px;" class="animable"></path></g><g id="el3ipyh21tgtb"><g style="opacity: 0.2; transform-origin: 323.5px 394.054px;" class="animable"><path d="M305.14,389.66a58,58,0,0,1,6.72-.08c1.12.05,2.24.15,3.36.29a16.93,16.93,0,0,1,1.7.32c.6.15,1,.27,1.59.36,2.14.38,4.37.53,6.58.72s4.44.36,6.66.57a62.44,62.44,0,0,1-6.7.27,43.65,43.65,0,0,1-6.73-.5c-.55-.09-1.19-.28-1.67-.4a15.78,15.78,0,0,0-1.58-.33c-1.08-.2-2.18-.32-3.28-.46Z" id="el90jjihxrtg5" class="animable" style="transform-origin: 318.445px 390.817px;"></path><path d="M309.56,391.73c1.59.23,3.16.49,4.71.79s3.11.62,4.64.82a29.93,29.93,0,0,0,4.65.06c1.58-.07,3.16-.11,4.77-.12a34.66,34.66,0,0,1-4.7,1,19.66,19.66,0,0,1-4.86.17,34.85,34.85,0,0,1-4.7-1.07A39.09,39.09,0,0,1,309.56,391.73Z" id="elmwi0lbtgz7" class="animable" style="transform-origin: 318.945px 393.129px;"></path><path d="M341.86,396a1,1,0,0,1-.05.24.13.13,0,0,1,0,.06c0,.06-.06.11-.08.16a2.74,2.74,0,0,1-.36.47,6.78,6.78,0,0,1-1.72,1.27l-.2.1a6.13,6.13,0,0,1-.75.29H335.6a10.26,10.26,0,0,1-1.58-.74,3,3,0,0,1-1.46-1.5.8.8,0,0,1,.11-.71,1,1,0,0,1,.49-.38,3.93,3.93,0,0,1,1-.25,6.92,6.92,0,0,1,1.44,0l.46,0a3.46,3.46,0,0,1,1.74.66,4.41,4.41,0,0,0-2.27-.36,9.35,9.35,0,0,0-1.29.2,4.2,4.2,0,0,0-.8.28c-.23.13-.26.21-.21.35a2.69,2.69,0,0,0,1.2,1,9.57,9.57,0,0,0,1,.42,5.41,5.41,0,0,0,.61.2,3.32,3.32,0,0,0,1.6.06,5.75,5.75,0,0,0,2.9-1.6,1,1,0,0,0,.14-.17.37.37,0,0,0,.06-.1h0a2,2,0,0,0-.37-.59,4.33,4.33,0,0,0-1.35-.93,5.56,5.56,0,0,0-.8-.32,9.08,9.08,0,0,0-2.28-.4l-.31,0a12.49,12.49,0,0,0-3.57.48,19,19,0,0,0-3.44,1.27,13.55,13.55,0,0,1,7-2.57h.68a8.27,8.27,0,0,1,2.19.31,6.63,6.63,0,0,1,1,.32l.08,0a5.08,5.08,0,0,1,1.61,1.12,2.45,2.45,0,0,1,.51.73c.05.08.08.16.12.24A1.41,1.41,0,0,1,341.86,396Z" id="elcjhchnw3qr6" class="animable" style="transform-origin: 335.24px 395.74px;"></path><path d="M330.55,398.55h-2.31l-1.16-.64a16,16,0,0,0-4.65-1.62,10.77,10.77,0,0,1,5,.87C328.51,397.6,329.52,398.1,330.55,398.55Z" id="el17f59c8psaa" class="animable" style="transform-origin: 326.49px 397.408px;"></path><path d="M314.85,397.14a.77.77,0,0,1-.57.62,5.4,5.4,0,0,1-1.3.28,15.74,15.74,0,0,1-2.57,0c.86-.08,1.7-.18,2.53-.34s2-.5,1.14-.89a5.56,5.56,0,0,0-2.31-.6,13.81,13.81,0,0,0-2.49,0,9.42,9.42,0,0,0-2.36.49c-.33.15-.64.35-.7.52s-.05.41.16.66a3.28,3.28,0,0,0,.81.6h-1.63a1.63,1.63,0,0,1-.36-.72,1.46,1.46,0,0,1,.12-.93,2.25,2.25,0,0,1,1.26-1,9.2,9.2,0,0,1,2.66-.44,15.27,15.27,0,0,1,2.61.13,6,6,0,0,1,2.54.86A1,1,0,0,1,314.85,397.14Z" id="elwzliahbad7f" class="animable" style="transform-origin: 310.011px 396.93px;"></path><path d="M319.7,396.39c-2.29-.39-4.48-1-6.67-1.59l-3.27-.88a15.39,15.39,0,0,0-3.33-.59,7.6,7.6,0,0,1,3.48-.24,24.5,24.5,0,0,1,3.41.68A26.64,26.64,0,0,1,319.7,396.39Z" id="el0zfq6en06qk" class="animable" style="transform-origin: 313.065px 394.69px;"></path></g></g><path d="M380.35,398.55H370.11a4.34,4.34,0,0,1-1.29.25,7.6,7.6,0,0,1-1.9-.13,4.05,4.05,0,0,1-.47-.12H344c-.3,0-.6.06-.91.08,0,0,0-.05,0-.08h-7.47a5.46,5.46,0,0,1-.22-1,6.7,6.7,0,0,1,.05-2.22c0-.11,0-.22.07-.34a8,8,0,0,1,.4-1.3,8.63,8.63,0,0,1,.36-.85c.12-.23.24-.48.39-.72l1.9-.26,3.24-.42h0l3.34-.43h0c11.6-1.45,31.11-3.69,32.73-2.63S380.82,394.36,380.35,398.55Z" style="fill: rgb(239, 71, 111); transform-origin: 357.888px 393.458px;" id="el5km707v1vkt" class="animable"></path><g id="elz3w08cq6snc"><path d="M380.35,398.55H370.11a4.34,4.34,0,0,1-1.29.25,7.6,7.6,0,0,1-1.9-.13,4.05,4.05,0,0,1-.47-.12H344c-.3,0-.6.06-.91.08,0,0,0-.05,0-.08h-7.47a5.46,5.46,0,0,1-.22-1,6.7,6.7,0,0,1,.05-2.22c0-.11,0-.22.07-.34a8,8,0,0,1,.4-1.3,8.63,8.63,0,0,1,.36-.85c.12-.23.24-.48.39-.72l1.9-.26,3.24-.42h0l3.34-.43h0c11.6-1.45,31.11-3.69,32.73-2.63S380.82,394.36,380.35,398.55Z" style="opacity: 0.49; transform-origin: 357.888px 393.458px;" class="animable"></path></g><g id="eljfad8gdpba9"><path d="M380.06,398.55h-4.74a16.37,16.37,0,0,1-.25-1.84c-.39-4.33,1.54-8.21,2.72-7.93,1,.23,2.12,3.1,2.35,7A15.71,15.71,0,0,1,380.06,398.55Z" style="fill: rgb(255, 255, 255); opacity: 0.2; transform-origin: 377.593px 393.658px;" class="animable"></path></g><g id="elwck3zguakqg"><g style="opacity: 0.2; transform-origin: 356.759px 394.552px;" class="animable"><path d="M356.24,398.55h-8.49a30,30,0,0,1,3.82-.51A18.53,18.53,0,0,1,356.24,398.55Z" id="elsp6l5owhk9r" class="animable" style="transform-origin: 351.995px 398.293px;"></path><path d="M361.49,397.84c.45.25.89.49,1.35.71h-.41C362.1,398.33,361.79,398.08,361.49,397.84Z" id="eljqf0keiwtj" class="animable" style="transform-origin: 362.165px 398.195px;"></path><path d="M374.7,398.29a1,1,0,0,1-.05.26h-1.2a1.07,1.07,0,0,0,.17-.27h0s0,0,0,0a2,2,0,0,0-.19-.28,5.7,5.7,0,0,0-2.77-1.81,3.11,3.11,0,0,0-1.6-.08,11.27,11.27,0,0,0-1.69.5,2.44,2.44,0,0,0-1.27.87c-.08.13-.05.21.17.37a4.25,4.25,0,0,0,.78.33,5.5,5.5,0,0,0,3.56.12,2.42,2.42,0,0,1-.5.27,4.34,4.34,0,0,1-1.29.25,7.6,7.6,0,0,1-1.9-.13,4.05,4.05,0,0,1-.47-.12c-.15-.06-.32-.12-.48-.2a1.06,1.06,0,0,1-.46-.42.8.8,0,0,1-.05-.72,3,3,0,0,1,1.57-1.37,8.14,8.14,0,0,1,1.82-.67,4.15,4.15,0,0,1,2.07,0,6.59,6.59,0,0,1,3.36,2.14,2.36,2.36,0,0,1,.31.51c0,.05.05.1.08.16A1.53,1.53,0,0,1,374.7,398.29Z" id="el21e14xlg90d" class="animable" style="transform-origin: 370.049px 396.946px;"></path><path d="M374.69,395.09a23.72,23.72,0,0,0-4.83-1.1,11.69,11.69,0,0,0-4.75.38c-1.57.41-3.07,1.08-4.7,1.6a10.73,10.73,0,0,1-5.05.47,15.65,15.65,0,0,0,4.76-1.26,36.17,36.17,0,0,1,4.7-1.85,10.46,10.46,0,0,1,5.17-.17A13.58,13.58,0,0,1,374.69,395.09Z" id="eltb0w82flqyo" class="animable" style="transform-origin: 365.025px 394.734px;"></path><path d="M351.39,391.36a51.81,51.81,0,0,1,5.95-.92,27.53,27.53,0,0,1,6.09,0,33.55,33.55,0,0,0,5.87.52l6,.16a48,48,0,0,1-6,.68,23.72,23.72,0,0,1-6.06-.3,40.62,40.62,0,0,0-5.87-.19C355.39,391.32,353.4,391.35,351.39,391.36Z" id="eldnqo52orfl5" class="animable" style="transform-origin: 363.345px 391.072px;"></path><path d="M364,392.2c-1.63.51-3.29.93-5,1.31-.84.18-1.68.33-2.55.43a8.2,8.2,0,0,1-1.33.08,7.76,7.76,0,0,1-1.32-.2c-1.7-.34-3.33-.82-5-1.18a15.58,15.58,0,0,0-4.85-.56,19.53,19.53,0,0,0-2.44.5,5.39,5.39,0,0,0-2.06,1,.59.59,0,0,0-.21.64c.05.18.34.4.67.57a9.39,9.39,0,0,0,2.31.68,13.69,13.69,0,0,0,2.48.21,5.32,5.32,0,0,0,2.35-.42c.91-.31-.36-.76-1.07-1a23,23,0,0,0-2.49-.54,17,17,0,0,1,2.56.26,5.08,5.08,0,0,1,1.27.37c.18.11.5.24.51.67a.9.9,0,0,1-.51.66,5.82,5.82,0,0,1-2.6.65,14.35,14.35,0,0,1-2.62-.07,8.49,8.49,0,0,1-2.6-.65,2.18,2.18,0,0,1-1.18-1.1,1.47,1.47,0,0,1-.05-.93,1.73,1.73,0,0,1,.46-.75,6,6,0,0,1,2.49-1.25,19.3,19.3,0,0,1,2.57-.55,9.29,9.29,0,0,1,2.7.1c.86.14,1.71.32,2.55.53,1.66.43,3.3.92,4.92,1.37a6.17,6.17,0,0,0,2.41.25c.84,0,1.68-.16,2.52-.28C360.61,392.79,362.28,392.48,364,392.2Z" id="elslc8idxdd8" class="animable" style="transform-origin: 351.109px 393.667px;"></path><path d="M352.64,396.14a27.23,27.23,0,0,1-6.57,2.11c-.66.12-1.34.23-2,.3-.3,0-.6.06-.91.08,0,0,0-.05,0-.08h-2.64a6.24,6.24,0,0,1-1.07-.29l-.26-.11h.46a20.28,20.28,0,0,0,2.9-.33l.79-.15,2.54-.49C348.1,396.78,350.33,396.34,352.64,396.14Z" id="elyygb6j1243m" class="animable" style="transform-origin: 345.915px 397.385px;"></path></g></g><path d="M314.37,319.92a1.05,1.05,0,1,1-1.05-1.05A1,1,0,0,1,314.37,319.92Z" style="fill: rgb(239, 71, 111); transform-origin: 313.321px 319.919px;" id="ely6crzu07jxm" class="animable"></path><path d="M349.17,337.7a1.05,1.05,0,1,1-1.05-1.05A1,1,0,0,1,349.17,337.7Z" style="fill: rgb(239, 71, 111); transform-origin: 348.121px 337.699px;" id="elsqwpwtto5sb" class="animable"></path><path d="M365.82,325.59a1.05,1.05,0,1,1,.19-1.48A1.05,1.05,0,0,1,365.82,325.59Z" style="fill: rgb(239, 71, 111); transform-origin: 365.182px 324.756px;" id="el2nrfm3co94" class="animable"></path><path d="M375.24,377.26a1.05,1.05,0,1,1-1.05-1.05A1,1,0,0,1,375.24,377.26Z" style="fill: rgb(239, 71, 111); transform-origin: 374.191px 377.259px;" id="elfnkr4ukdx9" class="animable"></path><path d="M305.08,373.47a1.05,1.05,0,1,1-1.05-1.05A1,1,0,0,1,305.08,373.47Z" style="fill: rgb(239, 71, 111); transform-origin: 304.031px 373.469px;" id="elvx0mnnqatqi" class="animable"></path><path d="M315.79,326.79a1.42,1.42,0,1,1-1.42-1.42A1.42,1.42,0,0,1,315.79,326.79Z" style="fill: rgb(239, 71, 111); transform-origin: 314.37px 326.79px;" id="elc03vtjzb6lk" class="animable"></path><path d="M360.11,301.27a1.42,1.42,0,1,1,.26-2A1.42,1.42,0,0,1,360.11,301.27Z" style="fill: rgb(239, 71, 111); transform-origin: 359.249px 300.141px;" id="el8swlqjem3aw" class="animable"></path><path d="M372.55,353.92a1.42,1.42,0,1,1-1.42-1.43A1.43,1.43,0,0,1,372.55,353.92Z" style="fill: rgb(239, 71, 111); transform-origin: 371.13px 353.91px;" id="ell4bbyzua64k" class="animable"></path><path d="M318.05,324.75a.61.61,0,0,1-.61.62.62.62,0,0,1-.62-.62.61.61,0,0,1,.62-.61A.61.61,0,0,1,318.05,324.75Z" style="fill: rgb(239, 71, 111); transform-origin: 317.435px 324.755px;" id="el8td00gt5ook" class="animable"></path><path d="M312.8,344.7a.61.61,0,0,1-.61.62.62.62,0,0,1,0-1.24A.61.61,0,0,1,312.8,344.7Z" style="fill: rgb(239, 71, 111); transform-origin: 312.185px 344.7px;" id="el4w4d5dru62e" class="animable"></path><path d="M300.31,367.82a.62.62,0,1,1-1.23,0,.62.62,0,0,1,1.23,0Z" style="fill: rgb(239, 71, 111); transform-origin: 299.695px 367.899px;" id="elxs6k41xwpap" class="animable"></path><path d="M374.61,349.5a.61.61,0,0,1-.61.62.62.62,0,0,1-.62-.62.61.61,0,0,1,.62-.61A.61.61,0,0,1,374.61,349.5Z" style="fill: rgb(239, 71, 111); transform-origin: 373.995px 349.505px;" id="elddzgn41oc5p" class="animable"></path><path d="M341.42,298.07a.61.61,0,0,1-.61.62.62.62,0,0,1-.62-.62.61.61,0,0,1,.62-.61A.61.61,0,0,1,341.42,298.07Z" style="fill: rgb(239, 71, 111); transform-origin: 340.805px 298.075px;" id="elcpto7fgyp9k" class="animable"></path><path d="M371.94,383.46c-.22-1.92-2-5.23-2.4-6.67s2-5.67,1.54-7.41-4.54-5.7-4.54-5.7.35,4.38,0,4.92-1.51,1.56-1.8,1.38,2.15-8.7,1.76-11.32-7.53-12.59-6.63-11,3.08,8.37,2.86,9.71-3.44,6.81-4.19,9.33,1.19,6.54,1.08,7.07-3.12,0-4.52-1.25,1.08-7.71,1.83-9.42-2-10.57-3.09-11.74-11.21-2.87-11.74-3.94,4-5.38,3.55-6.37-4.95-3-6.19-4.21,0-6.54,0-6.54-7.14,9.59-7.47,12.38,1.94,4.92,2.19,5.73-2.62,7.62-3.69,8.42a67,67,0,0,1-6,3.05c-2.44,1.26-3.61,5.2-3.61,5.2-.23-1.71,2-5.56,2.23-6.73s-4.9-9.5-4.71-10.66,3.78-4.93,4-6.55-7.65-8.51-7.65-8.51,3.63,7.88,2.77,10.05-10.43,15.5-10.21,18.19,2.58,10.84,2.48,12.19-3.56,8.15-3,10,9.1,8.34,10.87,9.32,5.65-.45,7.26,0,12.83,2.69,12.83,2.69l4.48-.06s17.15-1.85,21.92-4.36C366,389.78,372.16,385.37,371.94,383.46Zm-54.42-13.15s2.44,2.84,1.68,5.05-1.54,3.2-1.5,4.3.54,3.92.54,3.92c-.22-.15-2.49-4-2.65-5.71C315.37,375.6,317.52,370.31,317.52,370.31Zm1.54,20.47c-1.51-.66-6.16-4.16-6.67-5.74s.54-6.52.54-6.52,1.16,4.88,1.89,5.89,4.78,2.51,6.14,3.56,4.12,3,4.12,3S320.57,391.44,319.06,390.78Zm40.23-5.44c-.82,2.93-5.58,4.78-5.58,4.78a18.08,18.08,0,0,1,1.79-4c.86-1.11,2-3.23,1.93-4.94s-2.2-4.88-2.35-5.12C355.35,376.44,360.1,382.5,359.29,385.34Z" style="fill: rgb(239, 71, 111); transform-origin: 339.337px 362.685px;" id="el6dixjadfqsx" class="animable"></path><path d="M322.84,334.32s-4.93-2.93-5.08-5.14,3.09-6.81,2.76-8.6a11,11,0,0,0-1.42-3.47s5.23,3,5.2,5.44-3.1,6.33-2.82,7.53S322.84,334.32,322.84,334.32Z" style="fill: rgb(239, 71, 111); transform-origin: 321.028px 325.715px;" id="elv7wed9uo0ai" class="animable"></path><path d="M352.31,347.78s-1.15-2.92-1-4.07,1.81-2.67,1.81-2.67a2.84,2.84,0,0,1,.67,3C353.15,345.92,352.31,347.78,352.31,347.78Z" style="fill: rgb(239, 71, 111); transform-origin: 352.63px 344.41px;" id="elzwvkfzxnjfo" class="animable"></path><path d="M364.51,347.28a14.87,14.87,0,0,1-2.82-6.24c-.38-2.83,1.42-6.4,2-7.31s3.22-2.16,3.22-2.16-1.77,2.33-1.82,3.39.88,4.32,1,5.6S364.51,347.28,364.51,347.28Z" style="fill: rgb(239, 71, 111); transform-origin: 364.274px 339.425px;" id="elkk4vf0d7v7n" class="animable"></path><path d="M332.48,330.3s-3.71-4.22-3-6.95,3.57-6.3,4.67-7.22a38,38,0,0,0,4.95-4.57c1.13-1.48,1.18-6.86,0-8.2a9.8,9.8,0,0,0-3.23-2.17,11.2,11.2,0,0,1,8.28,3.56c3.22,3.76,7.36,18.38,5.43,21.69s-7.36,6.59-7.36,6.59,1.45-5.78,1-7.22-5.64,0-6.93.88A32.46,32.46,0,0,0,332.48,330.3Z" style="fill: rgb(239, 71, 111); transform-origin: 339.731px 317.11px;" id="elo5k9f42hkuo" class="animable"></path><path d="M324,351s-2.27-2-1.79-3.68,3.39-4.25,3.55-5.06a19.49,19.49,0,0,0-.67-4.09s2.92,4.63,2.28,6.06a30.15,30.15,0,0,0-1.24,3.59s1.29-.72,1.56-1.3a12.66,12.66,0,0,0,.54-1.57s2.2,2.28,1.5,3.9-4.51,4.7-4.51,4.7a8.59,8.59,0,0,0,.05-1.47C325.17,351.5,324.76,351.81,324,351Z" style="fill: rgb(239, 71, 111); transform-origin: 326.005px 345.86px;" id="el2kggkxn2zh1" class="animable"></path><g id="el21bliqzei54"><g style="opacity: 0.4; transform-origin: 340.111px 350.94px;" class="animable"><path d="M339.72,395.05s-13.43-4-16.43-9.76c-1.88-3.6,3.19-11,3.62-12.13s-.13-5.64.58-7.44,10.22-6.49,11.05-7.73-1.66-6.16-1.66-6.16,7.23,4.87,8.3,7.64S342,367.6,342,368.59s2.52,3.91,2.52,3.91,1.91-2,2-3.91-1-2.86-.81-4.16,3.15-3.82,3.15-3.82-1.52,2.25-.77,3.82,4.42,4.61,3.88,7-4.84,8-4.47,9.5a6.8,6.8,0,0,0,1.36,2.62,23,23,0,0,0,1.55-3.79c.37-1.52.77-3.53.77-3.53s2.2,9.95-.07,12.75S339.72,395.05,339.72,395.05Z" style="fill: rgb(255, 255, 255); transform-origin: 337.505px 373.44px;" id="ellng91tvbeph" class="animable"></path><path d="M336.15,325.72a13.86,13.86,0,0,1-1.61-4.37c-.05-1.48,3.17-3.45,4.62-4.57s4.57-4.75,4.3-6.64-.6-3.31-.6-3.31,4.47,10.66,4.2,14a9.08,9.08,0,0,1-2.63,5.51s-.86-3.24-2.74-3.14C339.16,323.37,336.15,325.72,336.15,325.72Z" style="fill: rgb(255, 255, 255); transform-origin: 340.806px 316.585px;" id="eleaa3q77acjo" class="animable"></path><path d="M321.68,332.85s-2.87-2.24-2.83-3.73,2.83-5.65,2.83-5.65-1.2,4.87-1.42,5.83S321.68,332.85,321.68,332.85Z" style="fill: rgb(255, 255, 255); transform-origin: 320.265px 328.16px;" id="el1ngbp584wp7" class="animable"></path><path d="M354.87,391.54s5.83-3,6.89-3.82,2.67-5.08,2.57-5.93-2-4.65-2-5.7,3.81-4.76,3.81-4.76-1.23,3.52-1,4.38,5.19,5.79,4.88,7.63-5,5.16-6.4,5.9S354.87,391.54,354.87,391.54Z" style="fill: rgb(255, 255, 255); transform-origin: 362.452px 381.435px;" id="el2n1wn0fd9v3" class="animable"></path><path d="M313.73,371.94s-3.87-8.37-3.52-10.58,4.86-10.58,4.86-10.58-.33,7.14-.69,8.26.69,4.53.69,4.53a26.89,26.89,0,0,0,1.63-3.34c.25-.9-.77-4.37-.77-4.37s2.81,6.2,2.17,8.57S313.73,371.94,313.73,371.94Z" style="fill: rgb(255, 255, 255); transform-origin: 314.191px 361.36px;" id="elfy23ljwzg8r" class="animable"></path></g></g><path d="M344,398.55c-.3,0-.6.06-.91.08,0,0,0-.05,0-.08Z" style="fill: rgb(239, 71, 111); transform-origin: 343.545px 398.59px;" id="eli8ad3a6sag" class="animable"></path><path d="M370.11,398.55a4.34,4.34,0,0,1-1.29.25,7.6,7.6,0,0,1-1.9-.13,4.05,4.05,0,0,1-.47-.12Z" style="fill: rgb(239, 71, 111); transform-origin: 368.28px 398.681px;" id="ellrvp3prvcjf" class="animable"></path><rect x="180.58" y="230.15" width="38.57" height="168.66" style="fill: rgb(239, 71, 111); transform-origin: 199.865px 314.48px;" id="el2g5igp54hmx" class="animable"></rect><g id="elfi4m0e8kc5"><rect x="180.58" y="230.15" width="38.57" height="168.66" style="opacity: 0.4; transform-origin: 199.865px 314.48px;" class="animable"></rect></g><g id="elak76sf8rfwu"><rect x="187.19" y="382.94" width="25.36" height="10.94" style="opacity: 0.1; transform-origin: 199.87px 388.41px;" class="animable"></rect></g><rect x="176.27" y="235.95" width="47.19" height="10.23" style="fill: rgb(239, 71, 111); transform-origin: 199.865px 241.065px;" id="elz07knpib7j" class="animable"></rect><g id="el71tvxk679mn"><rect x="176.27" y="235.95" width="47.19" height="10.23" style="opacity: 0.3; transform-origin: 199.865px 241.065px;" class="animable"></rect></g><rect x="176.28" y="365.59" width="47.18" height="10.23" style="fill: rgb(239, 71, 111); transform-origin: 199.87px 370.705px;" id="el8hlr3pj2546" class="animable"></rect><g id="elmh75jj4zij"><rect x="176.28" y="365.59" width="47.18" height="10.23" style="opacity: 0.3; transform-origin: 199.87px 370.705px;" class="animable"></rect></g><g id="elh0893172tdw"><path d="M188.8,361.66h0a2.42,2.42,0,0,1-2.42-2.42V253.69a2.42,2.42,0,0,1,2.42-2.42h0a2.41,2.41,0,0,1,2.41,2.42V359.24A2.42,2.42,0,0,1,188.8,361.66Z" style="opacity: 0.1; transform-origin: 188.795px 306.465px;" class="animable"></path></g><g id="ely5whlm3jlkp"><path d="M199.87,361.66h0a2.42,2.42,0,0,1-2.42-2.42V253.69a2.42,2.42,0,0,1,2.42-2.42h0a2.41,2.41,0,0,1,2.41,2.42V359.24A2.42,2.42,0,0,1,199.87,361.66Z" style="opacity: 0.1; transform-origin: 199.865px 306.465px;" class="animable"></path></g><g id="elqvhr1xea9rj"><path d="M210.93,361.66h0a2.42,2.42,0,0,1-2.41-2.42V253.69a2.41,2.41,0,0,1,2.41-2.42h0a2.42,2.42,0,0,1,2.42,2.42V359.24A2.42,2.42,0,0,1,210.93,361.66Z" style="opacity: 0.1; transform-origin: 210.935px 306.465px;" class="animable"></path></g><g id="elf6e2pdji0b5"><rect x="180.58" y="375.82" width="38.57" height="3.71" style="fill: rgb(239, 71, 111); opacity: 0.3; transform-origin: 199.865px 377.675px;" class="animable"></rect></g><rect x="459.62" y="230.15" width="38.57" height="168.66" style="fill: rgb(239, 71, 111); transform-origin: 478.905px 314.48px;" id="elzwc0vilwjsc" class="animable"></rect><g id="el1wevx6g0dfn"><rect x="459.62" y="230.15" width="38.57" height="168.66" style="opacity: 0.4; transform-origin: 478.905px 314.48px;" class="animable"></rect></g><g id="elpnn562n5r0g"><rect x="466.22" y="382.94" width="25.36" height="10.94" style="opacity: 0.1; transform-origin: 478.9px 388.41px;" class="animable"></rect></g><rect x="455.31" y="235.95" width="47.19" height="10.23" style="fill: rgb(239, 71, 111); transform-origin: 478.905px 241.065px;" id="el90l01s7kdh8" class="animable"></rect><g id="eligg74xkh47"><rect x="455.31" y="235.95" width="47.19" height="10.23" style="opacity: 0.3; transform-origin: 478.905px 241.065px;" class="animable"></rect></g><rect x="455.31" y="365.59" width="47.18" height="10.23" style="fill: rgb(239, 71, 111); transform-origin: 478.9px 370.705px;" id="elydzjuf51v8l" class="animable"></rect><g id="elcorgwd7uy35"><rect x="455.31" y="365.59" width="47.18" height="10.23" style="opacity: 0.3; transform-origin: 478.9px 370.705px;" class="animable"></rect></g><g id="ela6waa7thr8d"><path d="M467.83,361.66h0a2.42,2.42,0,0,1-2.41-2.42V253.69a2.41,2.41,0,0,1,2.41-2.42h0a2.42,2.42,0,0,1,2.42,2.42V359.24A2.42,2.42,0,0,1,467.83,361.66Z" style="opacity: 0.1; transform-origin: 467.835px 306.465px;" class="animable"></path></g><g id="el4tc8m3jzl5u"><path d="M478.9,361.66h0a2.42,2.42,0,0,1-2.41-2.42V253.69a2.41,2.41,0,0,1,2.41-2.42h0a2.42,2.42,0,0,1,2.42,2.42V359.24A2.42,2.42,0,0,1,478.9,361.66Z" style="opacity: 0.1; transform-origin: 478.905px 306.465px;" class="animable"></path></g><g id="elxf5jl9dbx6i"><path d="M490,361.66h0a2.43,2.43,0,0,1-2.42-2.42V253.69a2.42,2.42,0,0,1,2.42-2.42h0a2.41,2.41,0,0,1,2.41,2.42V359.24A2.42,2.42,0,0,1,490,361.66Z" style="opacity: 0.1; transform-origin: 489.995px 306.465px;" class="animable"></path></g><g id="eldr9326iy6nu"><rect x="459.62" y="375.82" width="38.57" height="3.71" style="fill: rgb(239, 71, 111); opacity: 0.3; transform-origin: 478.905px 377.675px;" class="animable"></rect></g><rect x="162.76" y="186.29" width="353.25" height="11.09" style="fill: rgb(239, 71, 111); transform-origin: 339.385px 191.835px;" id="elpkj80kc8p4r" class="animable"></rect><g id="el16bpfuc7aqq"><rect x="162.76" y="186.29" width="353.25" height="11.09" style="opacity: 0.4; transform-origin: 339.385px 191.835px;" class="animable"></rect></g><rect x="169.99" y="219.05" width="338.78" height="11.09" style="fill: rgb(239, 71, 111); transform-origin: 339.38px 224.595px;" id="elgv5vnz4s72s" class="animable"></rect><g id="el3nspqcfmnh8"><rect x="169.99" y="219.05" width="338.78" height="11.09" style="opacity: 0.4; transform-origin: 339.38px 224.595px;" class="animable"></rect></g><polygon points="505.44 197.39 501.22 219.05 178.6 219.05 173.32 197.39 505.44 197.39" style="fill: rgb(239, 71, 111); transform-origin: 339.38px 208.22px;" id="eljarsqw4ysgg" class="animable"></polygon><g id="elmb5nt3n7z8"><polygon points="505.44 197.39 501.22 219.05 178.6 219.05 173.32 197.39 505.44 197.39" style="opacity: 0.5; transform-origin: 339.38px 208.22px;" class="animable"></polygon></g><g id="elvqfp4g4pwy"><polygon points="174.42 201.89 503.33 208.22 505.44 197.39 173.32 197.39 174.42 201.89" style="opacity: 0.1; transform-origin: 339.38px 202.805px;" class="animable"></polygon></g><g id="elk5qclzjubm8"><rect x="192.82" y="139.51" width="68.44" height="25.12" style="fill: rgb(55, 71, 79); transform-origin: 227.04px 152.07px; transform: rotate(-90deg);" class="animable"></rect></g><g id="elrzuc4i07lx"><rect x="223.28" y="128.45" width="7.52" height="25.12" style="fill: rgb(239, 71, 111); transform-origin: 227.04px 141.01px; transform: rotate(-90deg);" class="animable"></rect></g><g id="elmzbbhqj1pz"><rect x="225.65" y="168.25" width="2.79" height="25.12" style="fill: rgb(239, 71, 111); transform-origin: 227.045px 180.81px; transform: rotate(90deg);" class="animable"></rect></g><g id="el41v5wrq1uy9"><rect x="225.65" y="155.39" width="2.79" height="25.12" style="fill: rgb(239, 71, 111); transform-origin: 227.045px 167.95px; transform: rotate(90deg);" class="animable"></rect></g><polygon points="334.54 177.97 301.76 117.11 284.82 125.43 317.6 186.29 334.54 177.97" style="fill: rgb(38, 50, 56); transform-origin: 309.68px 151.7px;" id="el4asisg2606o" class="animable"></polygon><polygon points="325.25 160.72 321.65 154.03 304.71 162.36 308.31 169.04 325.25 160.72" style="fill: rgb(239, 71, 111); transform-origin: 314.98px 161.535px;" id="eld9301dz1gmk" class="animable"></polygon><polygon points="309.56 131.59 308.22 129.11 291.28 137.44 292.62 139.92 309.56 131.59" style="fill: rgb(239, 71, 111); transform-origin: 300.42px 134.515px;" id="elounoxng3cbh" class="animable"></polygon><g id="elpq2kxmyfmd"><rect x="179.97" y="151.78" width="58.43" height="10.59" style="fill: rgb(166, 166, 166); transform-origin: 209.185px 157.075px; transform: rotate(-90deg);" class="animable"></rect></g><g id="elpt0viq50x4b"><rect x="197.91" y="139.96" width="22.47" height="6.35" style="fill: rgb(235, 235, 235); transform-origin: 209.145px 143.135px; transform: rotate(-90deg);" class="animable"></rect></g><g id="eloevp7wvbm7e"><rect x="239.54" y="141.02" width="73" height="17.56" style="fill: rgb(239, 71, 111); transform-origin: 276.04px 149.8px; transform: rotate(-90deg);" class="animable"></rect></g><g id="elwtujqcd8qc"><rect x="261.92" y="160.12" width="28.08" height="10.54" style="fill: rgb(255, 255, 255); transform-origin: 275.96px 165.39px; transform: rotate(-90deg);" class="animable"></rect></g><g id="ely1fjshuoiwl"><rect x="213.51" y="132.54" width="79.85" height="27.65" style="fill: rgb(166, 166, 166); transform-origin: 253.435px 146.365px; transform: rotate(90deg);" class="animable"></rect></g><g id="elbvpe4aybbqh"><rect x="249.71" y="160.28" width="7.44" height="27.65" style="fill: rgb(38, 50, 56); transform-origin: 253.43px 174.105px; transform: rotate(90deg);" class="animable"></rect></g><g id="elbs4r9lojrwg"><rect x="249.71" y="112.79" width="7.44" height="27.65" style="fill: rgb(38, 50, 56); transform-origin: 253.43px 126.615px; transform: rotate(90deg);" class="animable"></rect></g><g id="el9w8cd5s04me"><rect x="251.99" y="123.06" width="2.89" height="27.65" style="fill: rgb(38, 50, 56); transform-origin: 253.435px 136.885px; transform: rotate(90deg);" class="animable"></rect></g><g id="elhwdksd15inl"><rect x="157.67" y="140.07" width="72.29" height="20.15" style="fill: rgb(239, 71, 111); transform-origin: 193.815px 150.145px; transform: rotate(-90deg);" class="animable"></rect></g><g id="elpq3s85paoc"><rect x="190.45" y="114.95" width="6.74" height="20.15" style="fill: rgb(55, 71, 79); transform-origin: 193.82px 125.025px; transform: rotate(-90deg);" class="animable"></rect></g><g id="elxdxdbi2cse"><rect x="190.45" y="157.94" width="6.74" height="20.15" style="fill: rgb(55, 71, 79); transform-origin: 193.82px 168.015px; transform: rotate(-90deg);" class="animable"></rect></g><g id="eldr64g6utwjr"><rect x="192.51" y="148.65" width="2.61" height="20.15" style="fill: rgb(55, 71, 79); transform-origin: 193.815px 158.725px; transform: rotate(-90deg);" class="animable"></rect></g></g><g id="freepik--Plant--inject-32" class="animable" style="transform-origin: 128.957px 372.595px;"><path d="M127.36,322a51.58,51.58,0,0,1-1,19.8,54.86,54.86,0,0,1-3,8.75c-1.58,3.62-3.22,7.16-2.83,11.12.38.26-.93.22-1-.17-10.59-6-24.17-7.13-32.32-17C83.35,339.88,81.4,334,80.48,328c-1-6.44-1.28-13.57.38-19.93,1.4-5.37,4.54-10.55,9.59-13.18,5.21-2.71,12-2.48,17.52-.78C119.8,297.83,125.69,310.6,127.36,322Z" style="fill: rgb(239, 71, 111); transform-origin: 103.779px 327.337px;" id="elzl5jl62hr2l" class="animable"></path><path d="M132.8,400.44c-1.45-4.82-2.89-9.64-4.38-14.44-2.9-9.41-5.92-18.79-9.27-28.06q-3-8.32-6.34-16.49a99.06,99.06,0,0,1,1.27-10.24c.88-4.1,2.17-8.07,3.37-12.09.07-.24-.33-.37-.43-.14-2.38,5.54-5.48,12.62-5.56,19.17q-3.87-9.22-8.32-18.21a77.18,77.18,0,0,1,.47-15.18c0-.23-.32-.3-.36-.07a53.54,53.54,0,0,0-1,13.4q-3.4-6.75-7.22-13.31c-.23-.39-.78,0-.58.4,4,7.66,7.67,15.49,11.14,23.41A51,51,0,0,0,88.94,319c-.26-.1-.46.29-.19.4a60.44,60.44,0,0,1,18,11.89q3.74,8.7,7.12,17.55c-6.63-6.49-15.7-10.77-24.47-13.06-.3-.08-.38.38-.09.47,10.15,3,18,8.81,25.76,15.72.89,2.39,1.77,4.77,2.64,7.17q4.9,13.61,9.34,27.39,2.14,6.6,4.2,13.22c1.49,4.75,2.64,9.76,4.57,14.35.19.44,1,.34.87-.19C135.78,409.34,134.13,404.87,132.8,400.44Z" style="fill: rgb(38, 50, 56); transform-origin: 112.663px 359.463px;" id="elexso3s8n98" class="animable"></path><path d="M115.23,312.77a26.31,26.31,0,0,0-3.81,9.51c0,.09.12.14.15.05A83.44,83.44,0,0,1,115.7,313C115.86,312.69,115.41,312.5,115.23,312.77Z" style="fill: rgb(38, 50, 56); transform-origin: 113.577px 317.509px;" id="elkd4781xabsg" class="animable"></path><path d="M96.34,334.84a27.86,27.86,0,0,0-9.51-3.2c-.08,0-.14.11,0,.15,1.53.63,3.14,1.08,4.68,1.67s3.07,1.32,4.64,1.87A.27.27,0,0,0,96.34,334.84Z" style="fill: rgb(38, 50, 56); transform-origin: 91.6016px 333.486px;" id="elrwmdqbx8pui" class="animable"></path><path d="M91,308.3A18.69,18.69,0,0,0,88,306.41a.16.16,0,0,0-.18.27,18.33,18.33,0,0,0,3,1.95C91,308.75,91.21,308.42,91,308.3Z" style="fill: rgb(38, 50, 56); transform-origin: 89.418px 307.519px;" id="elsiwmzb4qr39" class="animable"></path><path d="M163.06,358c-7.62,2.27-15.29,4.36-22.92,6.6-.66.2-13.55-24.51-8.89-37.24,4.3-11.78,14.16-20.6,25.92-24.6,5.45-1.85,12.14-3.4,17.9-2.13,5.11,1.13,8.72,5.31,10.39,10.13,2.26,6.53,1.51,14.33.27,21-1.14,6.19-3.41,12.29-7.5,17.15S169,356.25,163.06,358Z" style="fill: rgb(239, 71, 111); transform-origin: 158.575px 332.384px;" id="el4pmkl0p7smq" class="animable"></path><path d="M174.12,334.53a102.7,102.7,0,0,1-15,5.89c-3.25,1-6.88,2-10,3.61,3.22-7.18,6.76-14.21,10.51-21.18,4.93-1.42,10.11-3.65,13.82-7.13a.21.21,0,0,0-.27-.32c-4.07,2.87-8.55,4.59-13.05,6.53,1-1.87,2-3.74,3.09-5.61.29-.52-.43-1-.78-.53A161.74,161.74,0,0,0,151.66,334a83.72,83.72,0,0,1-.78-16.68c0-.14-.2-.15-.22,0a55.5,55.5,0,0,0,.19,18.32c-2.68,5.34-5.12,10.81-7.3,16.35-.87-3.33-2-6.61-2.76-10a45.64,45.64,0,0,1-1.1-14.68c0-.15-.19-.16-.22,0a51.75,51.75,0,0,0,3.2,26.95c-1.27,3.34-2.49,6.68-3.6,10A199.38,199.38,0,0,0,129,417.22a.32.32,0,0,0,.64,0A262,262,0,0,1,141,365c2.21-6.64,4.75-13.1,7.55-19.44,4.5-1.33,9-3.13,13.42-4.67s8.74-3.22,12.36-6.06A.16.16,0,0,0,174.12,334.53Z" style="fill: rgb(38, 50, 56); transform-origin: 151.704px 366.45px;" id="el1ay87ewdz5i" class="animable"></path><path d="M181.23,327.35c-4.66,1.66-9.08,4-13.74,5.67-.22.08-.1.42.12.38,4.94-1,9.83-2.55,13.8-5.78C181.56,327.5,181.39,327.3,181.23,327.35Z" style="fill: rgb(38, 50, 56); transform-origin: 174.421px 330.373px;" id="el6639u7dvrmb" class="animable"></path><path d="M143.14,317.29c.06-.25-.3-.39-.38-.14-1.28,4.3-2.16,8.87-.92,13.26,0,.17.32.18.33,0C142.4,326,142.15,321.65,143.14,317.29Z" style="fill: rgb(38, 50, 56); transform-origin: 142.195px 323.78px;" id="elaj7gdnp8h3p" class="animable"></path><path d="M162.42,307.36a11.35,11.35,0,0,0-2,7.31c0,.16.27.26.32.06.57-2.46,1.52-4.7,2.27-7.09A.32.32,0,0,0,162.42,307.36Z" style="fill: rgb(38, 50, 56); transform-origin: 161.715px 311.007px;" id="elsicrdvk9z9j" class="animable"></path><path d="M72.34,368.91c2.23,7.1,7.55,16.91,16,17,5.46.05,11-.6,16.42-.68,5.85-.09,11.72-.07,17.56.27.48,0-.7-17.53-14.77-26.08-3.94-2.4-8.76-3.15-13.24-4.12a61,61,0,0,0-15.64-1.63c-3.23.13-5.92.81-7.07,4.12C70.36,361.25,71.26,365.54,72.34,368.91Z" style="fill: rgb(239, 71, 111); transform-origin: 96.7018px 369.782px;" id="eljeffiqm9qq9" class="animable"></path><path d="M78.39,360c3.42.88,6.87,1.89,10.3,3a35.25,35.25,0,0,0-2.83-2.77c-1.48-1.22-3.1-2.2-4.68-3.28-.13-.08-.05-.34.12-.27a19.31,19.31,0,0,1,8.3,6.6c4.27,1.38,8.51,2.91,12.59,4.58a47.78,47.78,0,0,1,8.06,4.24,32.69,32.69,0,0,0-2.92-5.07c-1.86-2.42-4.39-3.77-6.84-5.49a.22.22,0,0,1,.22-.37c5.53,2.45,8.88,6.43,11,11.9a46.49,46.49,0,0,1,8,7.25c9.31,10.57,16.65,24.64,16.67,39,0,.34-.55.44-.61.08-2.65-14.26-8.28-27.07-17.76-38.14-.67-.77-1.35-1.51-2-2.23a63.56,63.56,0,0,0-7.69-.57c-3,0-6,.44-9,.68-4.91.4-10.35.46-14.78-2-.19-.11-.06-.45.16-.37,9.88,3.59,20.24-1,30.14,1.17a46.14,46.14,0,0,0-14.6-9.41l-.91-.37c-6.34.76-13,2.42-19.21.36a.16.16,0,0,1,.08-.3c6,1.49,11.69-.38,17.58-.68-6.41-2.49-12.95-4.48-19.38-7C77.82,360.37,77.81,359.88,78.39,360Z" style="fill: rgb(38, 50, 56); transform-origin: 107.17px 388.147px;" id="el6hkb3c8gbea" class="animable"></path><path d="M75.6,366.27a83.75,83.75,0,0,0,9.22.7c.07,0,.1.11,0,.13a19.11,19.11,0,0,1-9.31-.6C75.38,366.46,75.44,366.25,75.6,366.27Z" style="fill: rgb(38, 50, 56); transform-origin: 80.1617px 366.843px;" id="elhsuhbacnako" class="animable"></path><path d="M96.44,360.18a15.12,15.12,0,0,1,4.56,3.18c.17.14,0,.43-.23.3-.77-.56-1.57-1.09-2.37-1.61a22.11,22.11,0,0,1-2.23-1.41C96,360.47,96.19,360.1,96.44,360.18Z" style="fill: rgb(38, 50, 56); transform-origin: 98.587px 361.931px;" id="elev43mvxzkjn" class="animable"></path><path d="M146.13,383c-.11.24.23.46.36.21h0a.34.34,0,0,0,.22.14,141.77,141.77,0,0,0,17.19,3c4.66.41,10,.67,14.09-2,5.52-3.66,9.15-13.44,6.17-19.66-3.53-7.38-14.17-3.37-19.51-.75A39.18,39.18,0,0,0,146.13,383Z" style="fill: rgb(239, 71, 111); transform-origin: 165.669px 373.539px;" id="elpuk7cq5w8a" class="animable"></path><path d="M142,386.45a54.36,54.36,0,0,1,10.27-7.82A35,35,0,0,1,162.68,368c.2-.14.37.18.18.33a47.25,47.25,0,0,0-8.77,9.22A95.86,95.86,0,0,1,167,371.72a17.19,17.19,0,0,1,6.92-6.94c.06,0,.13.05.07.1a28.54,28.54,0,0,0-6.25,6.55c2.62-1,5.26-1.88,7.91-2.76.23-.08.32.29.1.37-4.7,1.84-9.51,3.78-14.17,6a54.58,54.58,0,0,0,17.16-.05.13.13,0,0,1,.06.25,33.88,33.88,0,0,1-18.2.27,86.72,86.72,0,0,0-8.64,4.83,21.5,21.5,0,0,1,7,.58,52.83,52.83,0,0,0,12.27,1.38c.15,0,.19.25,0,.28-7.12,1.23-13.85-2-20.9-1.17a52.27,52.27,0,0,0-18,21.11c-3,6.05-4.58,12.45-7,18.69a.23.23,0,0,1-.44-.12C126.91,408.79,133,395.22,142,386.45Z" style="fill: rgb(38, 50, 56); transform-origin: 151.885px 393.066px;" id="eldzf9m7mjda" class="animable"></path><path d="M163.46,369.57a7.91,7.91,0,0,1,1.82-2.21,7.34,7.34,0,0,1,2.1-1.58c.07,0,.11.07.07.12-.58.66-1.39,1.15-2,1.78s-1.16,1.39-1.8,2A.11.11,0,0,1,163.46,369.57Z" style="fill: rgb(38, 50, 56); transform-origin: 165.457px 367.755px;" id="el5vf7u9ci1us" class="animable"></path><path d="M175.19,373.39c1.06-.27,2.18-.25,3.25-.47a31.44,31.44,0,0,0,3.14-.94.13.13,0,0,1,.1.23,10.47,10.47,0,0,1-6.49,1.51C175,373.69,175,373.43,175.19,373.39Z" style="fill: rgb(38, 50, 56); transform-origin: 178.388px 372.873px;" id="eli1h7ioodmu" class="animable"></path><polygon points="112.68 405.94 113.62 416.54 116.79 452.35 144.83 452.35 148.79 416.54 149.96 405.94 112.68 405.94" style="fill: rgb(69, 90, 100); transform-origin: 131.32px 429.145px;" id="elo6jybdb9j7c" class="animable"></polygon><polygon points="112.68 405.94 113.62 416.54 148.79 416.54 149.96 405.94 112.68 405.94" style="fill: rgb(38, 50, 56); transform-origin: 131.32px 411.24px;" id="eleqeod4n4igi" class="animable"></polygon><g id="elw2ggj7fs69"><rect x="109.91" y="403.04" width="42.83" height="8.6" style="fill: rgb(69, 90, 100); transform-origin: 131.325px 407.34px; transform: rotate(180deg);" class="animable"></rect></g></g><g id="freepik--Character--inject-32" class="animable" style="transform-origin: 501.94px 336.339px;"><path d="M635.11,452.19l-172.78.74C420.33,420,416,371.1,446,341.48c18.14-17.91,41.16-14.29,63.08-17.14h.07c7.63-1,15.12-2.78,22.24-6.53,22.57-11.91,35.3-40,54.29-63.64,2.37-3,4.84-5.84,7.44-8.62,15.62-16.68,46.7-17.22,63,6.23C697.35,311.34,678.42,400,635.11,452.19Z" style="fill: rgb(239, 71, 111); transform-origin: 552.82px 343.235px;" id="elhwxtx0kqtwr" class="animable"></path><g id="elc18k8k4v3ql"><path d="M638.94,315.88c-4.52,70.89-86.39,97.35-137.52,76.12C457,373.53,471.51,331.39,509,324.34h.07c7.63-1,15.12-2.78,22.24-6.53,22.57-11.91,35.3-40,54.29-63.64C613.93,239.46,642.26,264,638.94,315.88Z" style="opacity: 0.1; transform-origin: 556.576px 324.539px;" class="animable"></path></g><path d="M476.26,479.61c2.72-.81,65.71-45,67-48.24.51-1.21-5.39-10.76-12.86-22.1-1.61-2.45-3.29-5-5-7.52-11.14-16.55-23.35-33.86-23.35-33.86l-42.23,29.46,24.52,33.06,5.38,7.26s-16.55,27.72-17.64,31.39S473.54,480.42,476.26,479.61Z" style="fill: rgb(173, 99, 89); transform-origin: 501.555px 423.78px;" id="ellrp5w4zrscp" class="animable"></path><path d="M476.26,479.61c2.72-.81,65.71-45,67-48.24.62-1.48-8.23-15.27-17.87-29.62l-41.06,28.66,5.38,7.26s-16.55,27.72-17.64,31.39S473.54,480.42,476.26,479.61Z" style="fill: rgb(255, 255, 255); transform-origin: 507.552px 440.71px;" id="el16ixx0whxt1" class="animable"></path><path d="M476.26,479.61c2.72-.81,65.71-45,67-48.24.51-1.21-5.39-10.76-12.86-22.1l-40.69,28.4s-16.55,27.72-17.64,31.39S473.54,480.42,476.26,479.61Z" style="fill: rgb(55, 71, 79); transform-origin: 507.552px 444.47px;" id="elbihttyb1j6j" class="animable"></path><path d="M475.4,476.45c10.37-7.67,53-37.64,63.8-44.43.09-.06.13,0,0,.06-10.12,7.83-52.94,37.46-63.72,44.55C475.29,476.78,475.18,476.62,475.4,476.45Z" style="fill: rgb(38, 50, 56); transform-origin: 507.281px 454.342px;" id="elugsnbgne4n" class="animable"></path><path d="M474.58,464a10.39,10.39,0,0,1,8.13-1.86,10,10,0,0,1,6.32,4c0,.07-.07.15-.13.09a12,12,0,0,0-14.22-2.08C474.59,464.13,474.5,464,474.58,464Z" style="fill: rgb(38, 50, 56); transform-origin: 481.79px 464.104px;" id="eltrqf1z2w3c" class="animable"></path><path d="M486.4,441.59c4.18-3,10.13-5,15.19-3.36.19.06.1.34-.07.36a72.06,72.06,0,0,0-14.83,3.57A.32.32,0,0,1,486.4,441.59Z" style="fill: rgb(38, 50, 56); transform-origin: 493.966px 439.915px;" id="elt4d4ksfj5ls" class="animable"></path><path d="M484,445.15c4.18-3,10.13-5,15.19-3.36.19.06.1.34-.07.37a70.79,70.79,0,0,0-14.83,3.57A.33.33,0,0,1,484,445.15Z" style="fill: rgb(38, 50, 56); transform-origin: 491.583px 443.472px;" id="el2gmorhlqds9" class="animable"></path><path d="M481.66,448.72c4.18-3,10.13-5,15.19-3.37.19.07.1.34-.07.37A70.94,70.94,0,0,0,482,449.29.32.32,0,0,1,481.66,448.72Z" style="fill: rgb(38, 50, 56); transform-origin: 489.227px 447.052px;" id="eltztlm6fnn4" class="animable"></path><path d="M479.29,452.28c4.19-3,10.13-5,15.19-3.36.19.06.1.34-.07.36a71.57,71.57,0,0,0-14.83,3.57A.32.32,0,0,1,479.29,452.28Z" style="fill: rgb(38, 50, 56); transform-origin: 486.856px 450.605px;" id="eleipwegihyuo" class="animable"></path><path d="M529.47,423.88c4.75-3.32,9.91,4.06,5.15,7.38S524.71,427.2,529.47,423.88Z" style="fill: rgb(255, 255, 255); transform-origin: 532.044px 427.57px;" id="elo12kx3gfk5l" class="animable"></path><path d="M478.6,439.48c4.35,1.34,9.12.75,13.59.72a.62.62,0,0,0,.52-.87.14.14,0,0,0,.05-.22A27.12,27.12,0,0,0,481.33,431c-2.61-.92-6.52-.76-7.42,2.52C473.07,436.62,476.06,438.69,478.6,439.48ZM476,436.11c-2.81-4.89,3.82-4.27,5.72-3.52a27.83,27.83,0,0,1,3.54,1.77A79.81,79.81,0,0,1,492,439c-2.2-.12-4.39-.05-6.58-.09C482.78,438.82,477.49,438.81,476,436.11Z" style="fill: rgb(38, 50, 56); transform-origin: 483.28px 435.435px;" id="ely3xjjvhb0qp" class="animable"></path><path d="M505.88,425.88c-2.27-2.53-5.84-.91-7.76,1.08a27.06,27.06,0,0,0-6.58,12.37.14.14,0,0,0,.14.17.62.62,0,0,0,.86.55c4-2,8.54-3.59,11.82-6.74C506.28,431.47,508,428.27,505.88,425.88ZM498,435.81c-1.95,1-3.93,1.94-5.84,3,1.29-2.41,2.47-4.86,4-7.14a29.37,29.37,0,0,1,2.37-3.17c1.36-1.53,7-5,6.69.58C505.05,432.22,500.33,434.59,498,435.81Z" style="fill: rgb(38, 50, 56); transform-origin: 499.196px 432.341px;" id="elxl6btut9r1d" class="animable"></path><path d="M423.05,333.36c1.45,21.07,49.22,84.62,54.74,91.92l1.26,1.66,44.65-30.1-.45-.66-34.47-51.47,112,6.3-40.44-35.69s-3.57,1.78-10.67.28C525.16,310.45,470,299,456.8,298.69,439.81,298.34,421.71,314,423.05,333.36Z" style="fill: rgb(38, 50, 56); transform-origin: 511.88px 362.812px;" id="el4fpnnqu1eq8" class="animable"></path><path d="M476.44,325.6a51.35,51.35,0,0,1,3.56,5.2c1.22,1.83,2.46,3.63,3.68,5.46l0,.05c-.2-.52-.4-1.05-.61-1.57-.73-1.79-1.29-3.62-2.17-5.33a.09.09,0,0,1,.16-.09c.91,1.71,2,3.34,2.75,5.13.36.84.7,1.69,1,2.55.17.47.34.94.49,1.42a4.87,4.87,0,0,1,.2.68c.55.84,1.08,1.69,1.6,2.55,1.15,1.91,2.14,3.92,3.31,5.81.06.1-.1.18-.16.09-1.19-1.79-2.54-3.47-3.75-5.25s-2.39-3.66-3.54-5.52-2.2-3.66-3.32-5.48a52.37,52.37,0,0,1-3.35-5.62C476.3,325.61,476.39,325.54,476.44,325.6Z" style="fill: rgb(55, 71, 79); transform-origin: 483.357px 336.583px;" id="ell4a37cgx7yh" class="animable"></path><path d="M474,416.71c2.56-1.92,5.28-3.65,7.95-5.41s5.38-3.51,8.08-5.24c5.4-3.47,10.79-7,16.24-10.37,3-1.86,6-3.7,9.1-5.4.14-.07.26.15.14.24-5.17,3.79-10.62,7.19-16,10.65s-10.83,6.92-16.3,10.3c-3,1.85-6,3.77-9.06,5.44C474,417,473.84,416.79,474,416.71Z" style="fill: rgb(55, 71, 79); transform-origin: 494.746px 403.607px;" id="elh2mn0b49xoc" class="animable"></path><path d="M577.74,255.78c-4.74,18.1-16,46.14-25.54,45.84-8.72-.27-28-16-36-21.22s10.52-24.89,15.14-21.59c7.17,5.12,17.87,14.22,19.71,13.66,2.29-.69,5.28-6.26,18.55-22.62C575,243.16,579.76,248.08,577.74,255.78Z" style="fill: rgb(173, 99, 89); transform-origin: 546.217px 274.162px;" id="eles5orwypml9" class="animable"></path><path d="M522.67,251c-3.82-1.42-8.09-3.35-12.36-3.33s-7.9,5.6-7.93,7.21,1.44,11.71,5.71,11.77,1.81-7.71,2-8.59.35-2,1.16-1.92,14.8,7,14.8,7Z" style="fill: rgb(173, 99, 89); transform-origin: 514.215px 257.16px;" id="el1ub4y6a4yjq" class="animable"></path><path d="M522.39,251.56c-.24,0-11.61-4.69-15.88-4.67s-7.91,5.6-7.93,7.21,1.43,11.71,5.7,11.78,1.81-7.71,2-8.6.35-2,1.15-1.92,14.81,7,14.81,7Z" style="fill: rgb(173, 99, 89); transform-origin: 510.485px 256.385px;" id="elm36ljbeua8d" class="animable"></path><path d="M505.74,265.36a5.09,5.09,0,0,0,.75-2.52,8.87,8.87,0,0,0-.11-2.72,14.77,14.77,0,0,1-.49-2.36,4.82,4.82,0,0,1,.63-2.25c.34-.59,1-.38,1.5-.18a22,22,0,0,1,2.31,1.08c.81.42,1.61.86,2.41,1.29a20.53,20.53,0,0,1,2.46,1.4c.06,0,0,.14-.05.11a23.53,23.53,0,0,1-2.16-1c-.8-.4-1.61-.78-2.42-1.16s-1.5-.75-2.27-1.08a2.55,2.55,0,0,0-1.12-.36c-.33.07-.5.87-.57,1.13a4,4,0,0,0,.11,2.31,12.45,12.45,0,0,1,.4,2.34,6.21,6.21,0,0,1-.21,2.23,8.65,8.65,0,0,1-1,1.82C505.82,265.52,505.68,265.43,505.74,265.36Z" style="fill: rgb(38, 50, 56); transform-origin: 510.475px 260.298px;" id="els65zi6358k" class="animable"></path><path d="M535.77,263s-11.67-11-14.1-13.15c-4.88-4.37-25.57-13.19-28.46-13.54s-4,5.58,10,12c7.39,3.37,8.65,7.66,8.48,10s-2.51,6.73-6.48,6.56-6.46-6-10.1-6.71-1.34,6,1.18,9.94a24.34,24.34,0,0,0,10.57,8.51c3.42,1.34,14,6.09,14,6.09Z" style="fill: rgb(173, 99, 89); transform-origin: 513.586px 259.498px;" id="el5bomh7emncm" class="animable"></path><path d="M500.32,262c1.48,1.18,3.15,2.71,5.12,2.82s3.38-1.2,4.35-2.84a7.55,7.55,0,0,0,1.13-5.48,9.18,9.18,0,0,0-2.66-4.5,22.48,22.48,0,0,0-5.33-3.67c-.08,0,0-.17.08-.13,1.82.85,7.47,3.26,8.54,8.31a7.74,7.74,0,0,1-1.2,5.58c-.9,1.57-2.21,3.08-4.14,3.2-2.35.16-4.34-1.78-6-3.23C500.13,262,500.24,261.91,500.32,262Z" style="fill: rgb(38, 50, 56); transform-origin: 505.919px 256.747px;" id="elykuy2d6wki" class="animable"></path><path d="M535.79,261.47l-18.12,27.21s27.84,16.16,35.83,13.75,20.33-25,25.58-44.93-7.14-12.44-12-6.34-15.41,20.23-16,20S535.79,261.47,535.79,261.47Z" style="fill: rgb(69, 90, 100); transform-origin: 549.011px 273.62px;" id="elhzlykf825sq" class="animable"></path><g id="elsgtc1ugvhu"><path d="M537.32,298.58c6.35,2.7,12.61,4.7,15.9,3.92l.28-.07c8-2.42,20.33-25,25.58-44.93a30.91,30.91,0,0,0,1.27-8.19c0-.1,0-.19,0-.3s0-.31,0-.47a1.11,1.11,0,0,0,0-.19c0-.15,0-.3,0-.43Z" style="opacity: 0.1; transform-origin: 558.837px 275.295px;" class="animable"></path></g><path d="M527.59,286.13l1.74-2.89c1.18-1.92,8.21-13.33,11-16.78.07-.09.21,0,.16.12-2,4-9.23,15.18-10.44,17-.62.94-1.24,1.89-1.87,2.82s-1.38,1.81-2,2.75c-.06.09-.21,0-.15-.08C526.56,288.13,527,287.09,527.59,286.13Z" style="fill: rgb(38, 50, 56); transform-origin: 533.258px 277.805px;" id="eltrwopuriypd" class="animable"></path><path d="M544.53,327.94s76.65,20,77.09,19.55S619.35,262.38,594,246.21c-4-2.56-14-4.64-18.65-.57C562.18,257.27,543.6,326.73,544.53,327.94Z" style="fill: rgb(69, 90, 100); transform-origin: 583.079px 295.421px;" id="eltyo8oqxzj6f" class="animable"></path><path d="M545.86,321l75.55,18.83c-.12-2.33-.29-5.12-.54-8.26l-73-18.19C547.06,316.3,546.4,318.88,545.86,321Z" style="fill: rgb(55, 71, 79); transform-origin: 583.635px 326.605px;" id="eledg3uckowm" class="animable"></path><path d="M549,309.37l71.53,17.82c-.12-1.39-.26-2.83-.42-4.31l-70-17.44C549.71,306.78,549.34,308.1,549,309.37Z" style="fill: rgb(55, 71, 79); transform-origin: 584.765px 316.315px;" id="elx6aqepxr26d" class="animable"></path><path d="M577.65,259.37c4.43.65,11.31-6.61,13.8-12.23.17-.39-.73-4.22-1.59-8.93-.52-2.87-1-6.06-1.28-9l-18.12,6.07a47.44,47.44,0,0,1,2.75,11.18,6.14,6.14,0,0,1,0,1.22c0,.05,0,.12,0,.2C573,250.2,573.38,258.73,577.65,259.37Z" style="fill: rgb(173, 99, 89); transform-origin: 580.965px 244.31px;" id="el97t8dmrwt8k" class="animable"></path><path d="M570.45,235.26a46.9,46.9,0,0,1,2.75,11.19,6.18,6.18,0,0,1,0,1.22,1.09,1.09,0,0,0,0,.19,9.68,9.68,0,0,0,1.92-.05c10.74-1.16,12.65-14.75,13-18.44Z" style="fill: rgb(38, 50, 56); transform-origin: 579.285px 238.628px;" id="ell0vxm2p33h" class="animable"></path><path d="M589.28,205.55c2.57,6.39.76,25.65-3.54,30.28-6.23,6.72-17.26,8.27-23.18.59-5.73-7.44-2.92-32.5,2-36.8C571.7,193.3,585.48,196.12,589.28,205.55Z" style="fill: rgb(173, 99, 89); transform-origin: 574.918px 218.892px;" id="el99uvq5p50mj" class="animable"></path><path d="M571.35,219c0-.05.1.07.09.12-.19,1.28-.19,2.78.92,3.34,0,0,0,.09,0,.07C571,222.2,571,220.21,571.35,219Z" style="fill: rgb(38, 50, 56); transform-origin: 571.757px 220.76px;" id="elht3y9fb6brd" class="animable"></path><path d="M572.66,217.82c2.08.08,1.77,4.25-.17,4.17S570.91,217.75,572.66,217.82Z" style="fill: rgb(38, 50, 56); transform-origin: 572.636px 219.905px;" id="elobokbpcibtl" class="animable"></path><path d="M563.78,218.44c0-.05-.11.05-.11.11-.06,1.29-.34,2.76-1.54,3.1,0,0,0,.08,0,.07C563.57,221.63,563.93,219.67,563.78,218.44Z" style="fill: rgb(38, 50, 56); transform-origin: 562.971px 220.074px;" id="el5v0vnns72d6" class="animable"></path><path d="M562.73,217c-2.07-.31-2.55,3.84-.63,4.13S564.46,217.27,562.73,217Z" style="fill: rgb(38, 50, 56); transform-origin: 562.351px 219.064px;" id="elaoyduuw0fhv" class="animable"></path><path d="M574.44,216c-.55-.19-1-.45-1.57-.69a2.76,2.76,0,0,1-1.46-1,.88.88,0,0,1,.22-1.06,2.2,2.2,0,0,1,2.22-.05,3.17,3.17,0,0,1,1.74,1.52A1,1,0,0,1,574.44,216Z" style="fill: rgb(38, 50, 56); transform-origin: 573.478px 214.472px;" id="el7v1wv11arlb" class="animable"></path><path d="M561.27,214.79a15.73,15.73,0,0,0,1.69-.31,2.67,2.67,0,0,0,1.66-.64.87.87,0,0,0,0-1.07,2.19,2.19,0,0,0-2.15-.58,3.21,3.21,0,0,0-2,1.08A.94.94,0,0,0,561.27,214.79Z" style="fill: rgb(38, 50, 56); transform-origin: 562.536px 213.451px;" id="el21047e00xww" class="animable"></path><path d="M571.85,230.53c-.27.34-.53.79-1,.89a3.44,3.44,0,0,1-1.42-.16s-.08,0,0,.07a1.73,1.73,0,0,0,1.71.5,1.36,1.36,0,0,0,.87-1.26C572,230.5,571.89,230.48,571.85,230.53Z" style="fill: rgb(38, 50, 56); transform-origin: 570.702px 231.194px;" id="el3ib6uwbxeqq" class="animable"></path><path d="M570.51,226.7a4.45,4.45,0,0,1-3.08,1.73,5.67,5.67,0,0,1-1.59-.05c-.1,0-.47-.09-.58-.12A.32.32,0,0,1,565,228h0s.29-2.75.29-2.75c-.37.15-2.29.85-2.22.33a66.41,66.41,0,0,1,2.71-13.17c.05-.13.26-.09.24.05-.4,4.14-1.52,8.17-2,12.32a7.81,7.81,0,0,1,2.12-.48c.08,0-.44,3.37-.44,3.4a6.11,6.11,0,0,0,4.66-1.07C570.5,226.51,570.6,226.6,570.51,226.7Z" style="fill: rgb(38, 50, 56); transform-origin: 566.806px 220.397px;" id="eldwoqcxtabp" class="animable"></path><path d="M566.27,228.2a5.41,5.41,0,0,0,2.15,1.76,2.53,2.53,0,0,0,1.5.14c1.09-.26,1.14-1.26,1-2.11a6.35,6.35,0,0,0-.45-1.32A7.14,7.14,0,0,1,566.27,228.2Z" style="fill: rgb(38, 50, 56); transform-origin: 568.623px 228.413px;" id="eliiqi6kbs7rn" class="animable"></path><path d="M568.42,230a2.53,2.53,0,0,0,1.5.14c1.09-.26,1.14-1.26,1-2.11A2.54,2.54,0,0,0,568.42,230Z" style="fill: rgb(255, 156, 189); transform-origin: 569.698px 229.113px;" id="eljkjzr2b0uh" class="animable"></path><path d="M590.65,223c-5,.27-7.57-5.77-6.31-10.58,0,0-13.41,1.57-13.88-9.18a12.19,12.19,0,0,1-9.36,4.87l-1,3.75c-1.36-.42-2.76-4.34.64-7.35,0,0,.32-5.35,4.31-8.5a7.33,7.33,0,0,1,7.89-1,11,11,0,0,1,8.09-1.86,9.45,9.45,0,0,1,6.88,5.24s6.61,1.37,7.66,6.09a9.74,9.74,0,0,1-1.42,7.84s1.63,1.88.72,5.88C594.32,220.82,592.17,222.94,590.65,223Z" style="fill: rgb(38, 50, 56); transform-origin: 577.239px 208.008px;" id="el4jd68863me" class="animable"></path><path d="M570.77,202.31a12.8,12.8,0,0,0-.07,2.62,10.41,10.41,0,0,0,.45,2.55,6.74,6.74,0,0,0,3,3.9,11,11,0,0,0,4.91,1.32c.87,0,1.75,0,2.62,0s1.74-.17,2.63-.23c-.86.2-1.73.36-2.6.53s-1.77.13-2.66.2a10.72,10.72,0,0,1-5.21-1.26,7.05,7.05,0,0,1-3.18-4.3A10.8,10.8,0,0,1,570.77,202.31Z" style="fill: rgb(38, 50, 56); transform-origin: 577.344px 207.756px;" id="elhktve51l69l" class="animable"></path><path d="M563.78,208.41a13.82,13.82,0,0,0,4.09-2.12,8.36,8.36,0,0,0,1.59-1.61,10.43,10.43,0,0,0,1.16-2,5.82,5.82,0,0,1-.76,2.27,6.31,6.31,0,0,1-1.61,1.84,8,8,0,0,1-2.12,1.17A7.32,7.32,0,0,1,563.78,208.41Z" style="fill: rgb(38, 50, 56); transform-origin: 567.2px 205.545px;" id="elunrwbp00np" class="animable"></path><path d="M572.35,225.47a5.63,5.63,0,0,1-4.23-6.74h0a5.63,5.63,0,1,1,5.62,6.87A5.54,5.54,0,0,1,572.35,225.47Zm-3.5-6.57a4.87,4.87,0,1,0,5.83-3.67,4.94,4.94,0,0,0-1.2-.12A4.86,4.86,0,0,0,568.85,218.9Z" style="fill: rgb(239, 71, 111); transform-origin: 573.61px 219.972px;" id="elz92gwn6tgjf" class="animable"></path><path d="M560.53,224.35c-2.3-.21-3.94-2.9-3.66-6a6.73,6.73,0,0,1,1.54-3.81,3.51,3.51,0,0,1,6,.55,6.74,6.74,0,0,1,.82,4c-.27,2.92-2.16,5.17-4.32,5.23Zm-1.55-9.3a5.92,5.92,0,0,0-1.36,3.38c-.25,2.68,1.09,5,3,5.17s3.63-1.87,3.87-4.54a5.93,5.93,0,0,0-.72-3.57,3,3,0,0,0-2.26-1.6h-.28A3.09,3.09,0,0,0,559,215.05Z" style="fill: rgb(239, 71, 111); transform-origin: 561.053px 218.724px;" id="elvj8kcyjblab" class="animable"></path><path d="M568.24,219.4l.54-.53c-.79-.79-2.66-1.93-4.16-.59l.5.56C566.46,217.64,568.17,219.33,568.24,219.4Z" style="fill: rgb(239, 71, 111); transform-origin: 566.7px 218.531px;" id="el3wkyhs7ljpj" class="animable"></path><path d="M592,223.23l.69-.28c-.13-.33-1.33-3.19-3-3.62s-10.54-.47-11-.47v.75a100.49,100.49,0,0,1,10.78.45C590.56,220.34,591.63,222.44,592,223.23Z" style="fill: rgb(239, 71, 111); transform-origin: 585.69px 221.045px;" id="elvzelv0pouua" class="animable"></path><path d="M585.92,222.57s3.88-6.43,6.77-5.08.25,10.46-2.94,11.89a3.32,3.32,0,0,1-4.57-1.49Z" style="fill: rgb(173, 99, 89); transform-origin: 589.556px 223.541px;" id="el7l3xddoqggd" class="animable"></path><path d="M591.87,220.08s.06.07,0,.09c-2.23,1.08-3.3,3.29-4,5.55a1.84,1.84,0,0,1,2.71-.69c.06,0,0,.14-.05.13a2.06,2.06,0,0,0-2.21.86,10.22,10.22,0,0,0-1,1.9c-.1.21-.48.12-.41-.12v-.05C586.75,224.83,588.75,220.58,591.87,220.08Z" style="fill: rgb(38, 50, 56); transform-origin: 589.399px 224.059px;" id="elaxldncllheh" class="animable"></path><path d="M572.21,250.74s.06,0,.06,0c-.38,3.63-1,12.06,4.72,11.78,2.31-.11,4.46-1.46,6.27-2.79a31.79,31.79,0,0,0,5-4.72,46.12,46.12,0,0,0,4.77-6.12c.06-.09.2,0,.14.11-1.45,2.16-2.67,4.43-4.33,6.46a27.84,27.84,0,0,1-5.45,5.23c-1.93,1.36-4.23,2.7-6.67,2.71a4.6,4.6,0,0,1-4.53-3.67A20.25,20.25,0,0,1,572.21,250.74Z" style="fill: rgb(38, 50, 56); transform-origin: 582.44px 256.127px;" id="eldqvizs4h2t" class="animable"></path><path d="M600.24,264.78C598.31,283.64,585,319.55,575,323.51c-11.54,4.59-53.39-5.77-61.83-11.12-3.35-2.13,12.32-23.91,16.4-22.71,17.1,5,32.1,7.18,34.15,5.58,3.15-2.47,15.32-22.65,23.27-35.2C597,244.3,601.1,256.32,600.24,264.78Z" style="fill: rgb(173, 99, 89); transform-origin: 556.528px 288.515px;" id="el4awg2a4og9y" class="animable"></path><polygon points="474.18 249.67 493.43 235.65 510.06 274.23 490.78 286.06 474.18 249.67" style="fill: rgb(239, 71, 111); transform-origin: 492.12px 260.855px;" id="el976aqiekaaw" class="animable"></polygon><g id="elvsyudozhn"><polygon points="474.18 249.67 493.43 235.65 510.06 274.23 490.78 286.06 474.18 249.67" style="opacity: 0.1; transform-origin: 492.12px 260.855px;" class="animable"></polygon></g><path d="M476.69,249.48l16.37-11.73.77,1.19L507,270a39.12,39.12,0,0,0-3.82,4.65c-1.45,2.2-5.62,9.26-10.82,9.86Z" style="fill: rgb(255, 255, 255); transform-origin: 491.845px 261.13px;" id="elgdlv0hwmfq9" class="animable"></path><path d="M477.56,251.48a29,29,0,0,0,6.56-4.47c2.17-2.27,4.24-4.78,6-5.91s3.59-2.3,3.59-2.3l-.68-1.05-16.37,11.73Z" style="fill: rgb(235, 235, 235); transform-origin: 485.185px 244.615px;" id="el9nvmo2rziiq" class="animable"></path><polygon points="519.71 286.28 488.88 287.05 474.18 249.67 506.26 246.52 519.71 286.28" style="fill: rgb(239, 71, 111); transform-origin: 496.945px 266.785px;" id="el815nodb8a95" class="animable"></polygon><path d="M514.28,312.88c-1.87-.53-15-8.8-19-12.83a54.87,54.87,0,0,1-10.64-14.31c-4.31-8.42-6.48-14.65-5.78-17.56.82-3.37,1.09-3.93,10.73,9.89,5.45,7.81,10.19,8.41,14.25,8.07a62.53,62.53,0,0,1,29.26,4.52S521.45,314.91,514.28,312.88Z" style="fill: rgb(173, 99, 89); transform-origin: 505.915px 289.585px;" id="elfo7uy5hbxme" class="animable"></path><path d="M514.07,279.54a33,33,0,0,1,8,2.55,20.26,20.26,0,0,1,6,4.92c.08.09,0,.22-.12.13-3.72-4-8.95-5.77-14-7.48C514,279.64,514,279.52,514.07,279.54Z" style="fill: rgb(38, 50, 56); transform-origin: 521.026px 283.354px;" id="el9tut98er3vc" class="animable"></path><path d="M501.78,286.2c4.2-.21-10-7.81-10.52-12.57s4.22-3.56,8.07-1.12c13.35,8.5,22.92,7.41,30,15.91S501.78,286.2,501.78,286.2Z" style="fill: rgb(173, 99, 89); transform-origin: 510.753px 281.034px;" id="elofgsg2t293i" class="animable"></path><path d="M562.75,294.17c-3.2,1.1-26.33-3.61-26.33-3.61l-10.7,31.72s40.17,6.56,49.19,2.74,21.29-36.14,24.72-54.68c3.23-17.43-3.35-28.22-14.39-9.65C585.24,260.69,564.43,293.59,562.75,294.17Z" style="fill: rgb(69, 90, 100); transform-origin: 563.087px 288.6px;" id="el18cblb1gl0f" class="animable"></path><path d="M545.57,324.93c1,.1,1.93.21,2.9.3" style="fill: rgb(235, 235, 235); transform-origin: 547.02px 325.08px;" id="elhc9bgxr55s" class="animable"></path><path d="M558,294.15c-.87-.09-1.82-.2-2.81-.33" style="fill: rgb(235, 235, 235); transform-origin: 556.595px 293.985px;" id="elshkmnjd695f" class="animable"></path><path d="M575.33,324c7.47-4.48,15.63-25.85,17.19-30,1-2.69,1.9-5.41,2.77-8.13,1.76-5.46,3.34-11,4.83-16.5a.07.07,0,1,1,.14,0c-.73,4.25-1.68,8.47-2.83,12.63a44.67,44.67,0,0,0,2.21-4.88c0-.08.17,0,.14.05a26,26,0,0,1-2.57,5.65c-1.18,4.19-2.55,8.32-4.11,12.36-.46,1.17-9.79,27.3-18.28,30.24-3,1-13.28,1-15.5.62-.1,0-.13-.13,0-.14C562.26,325.66,572.66,325.64,575.33,324Z" style="fill: rgb(38, 50, 56); transform-origin: 579.747px 297.787px;" id="el8y2ihmpsyj9" class="animable"></path><path d="M534,318c.31-1.09.63-2.18,1-3.27.65-2.18,4.56-15.12,6.37-19.2,0-.11.21,0,.19.07-.87,4.4-5.09,17.19-5.79,19.31-.36,1.08-.73,2.15-1.1,3.23s-.88,2.12-1.25,3.2c0,.11-.21.07-.18,0C533.53,320.18,533.71,319.06,534,318Z" style="fill: rgb(38, 50, 56); transform-origin: 537.399px 308.446px;" id="elmlh9r4ckzwc" class="animable"></path><path d="M536.42,290.61c1.89,0,19.15,2.77,23,3.36a7.57,7.57,0,0,0,2.8.2,4.08,4.08,0,0,0,2.12-1.81c1.12-1.48,13.24-19.94,14.15-20.87.34-.35.62-.43.32.14-.53,1-12.3,19.21-13.38,20.65s-1.94,2.75-3.78,2.79c-.81,0-24.08-3.58-25.23-4A.24.24,0,0,1,536.42,290.61Z" style="fill: rgb(38, 50, 56); transform-origin: 557.593px 283.142px;" id="elpv3rnjo0b2m" class="animable"></path><path d="M324.91,402.15c.82,2.71,45.24,65.56,48.45,66.89,1.22.51,10.75-5.43,22.06-12.93,2.45-1.62,5-3.3,7.5-5,16.52-11.2,33.79-23.47,33.79-23.47l-29.6-42.13-33,24.63-7.25,5.4S339.12,399.05,335.45,398,324.09,399.43,324.91,402.15Z" style="fill: rgb(173, 99, 89); transform-origin: 380.78px 427.29px;" id="elcusl4zu2o26" class="animable"></path><path d="M324.91,402.15c.82,2.71,45.24,65.56,48.45,66.89,1.48.61,15.25-8.28,29.56-18l-28.78-41-7.25,5.4S339.12,399.05,335.45,398,324.09,399.43,324.91,402.15Z" style="fill: rgb(255, 255, 255); transform-origin: 363.885px 433.412px;" id="elmae0d4uva6m" class="animable"></path><path d="M324.91,402.15c.82,2.71,45.24,65.56,48.45,66.89,1.22.51,10.75-5.43,22.06-12.93l-28.53-40.6S339.12,399.05,335.45,398,324.09,399.43,324.91,402.15Z" style="fill: rgb(55, 71, 79); transform-origin: 360.135px 433.412px;" id="elbolp4gvd1bb" class="animable"></path><path d="M328.06,401.27c7.71,10.35,37.81,52.84,44.64,63.66.06.09,0,.13-.06.05-7.87-10.1-37.63-52.83-44.75-63.59C327.74,401.17,327.9,401.05,328.06,401.27Z" style="fill: rgb(38, 50, 56); transform-origin: 350.277px 433.088px;" id="elbunsdqvynp5" class="animable"></path><path d="M340.56,400.42a10.38,10.38,0,0,1,1.89,8.12,10.09,10.09,0,0,1-4,6.33c-.07,0-.15-.07-.09-.13a12,12,0,0,0,2-14.23A.08.08,0,0,1,340.56,400.42Z" style="fill: rgb(38, 50, 56); transform-origin: 340.483px 407.613px;" id="el5cagpc4mhrf" class="animable"></path><path d="M363,412.16c3,4.18,5,10.12,3.41,15.18-.06.19-.34.1-.36-.07a71.35,71.35,0,0,0-3.62-14.81A.33.33,0,0,1,363,412.16Z" style="fill: rgb(38, 50, 56); transform-origin: 364.694px 419.745px;" id="elpy1a2aaa71" class="animable"></path><path d="M359.39,409.8c3,4.18,5,10.12,3.41,15.18-.06.2-.34.1-.37-.07a70.7,70.7,0,0,0-3.61-14.81A.33.33,0,0,1,359.39,409.8Z" style="fill: rgb(38, 50, 56); transform-origin: 361.084px 417.387px;" id="el6z028byibnp" class="animable"></path><path d="M355.82,407.45c3,4.17,5,10.11,3.41,15.17-.06.2-.34.11-.37-.06a71.42,71.42,0,0,0-3.61-14.82A.32.32,0,0,1,355.82,407.45Z" style="fill: rgb(38, 50, 56); transform-origin: 357.506px 415.01px;" id="el3gff6znxrax" class="animable"></path><path d="M352.25,405.09c3,4.17,5,10.11,3.41,15.17-.06.2-.34.11-.37-.06a71.57,71.57,0,0,0-3.61-14.82A.32.32,0,0,1,352.25,405.09Z" style="fill: rgb(38, 50, 56); transform-origin: 353.936px 412.65px;" id="el5w9i2mk01m4" class="animable"></path><path d="M380.81,455.17c3.33,4.74-4,9.93-7.37,5.18S377.48,450.42,380.81,455.17Z" style="fill: rgb(255, 255, 255); transform-origin: 377.119px 457.759px;" id="eld5swnmney" class="animable"></path><path d="M365.05,404.36c-1.33,4.35-.73,9.12-.68,13.59a.63.63,0,0,0,.87.52.15.15,0,0,0,.22,0,27.1,27.1,0,0,0,8.07-11.46c.91-2.61.74-6.53-2.54-7.41C367.89,398.82,365.82,401.82,365.05,404.36Zm3.35-2.67c4.89-2.82,4.29,3.81,3.54,5.71a29.22,29.22,0,0,1-1.75,3.55,80.54,80.54,0,0,1-4.57,6.79c.11-2.19,0-4.38.06-6.58C365.72,408.54,365.71,403.25,368.4,401.69Z" style="fill: rgb(38, 50, 56); transform-origin: 369.099px 408.996px;" id="el4cy8wjshgvf" class="animable"></path><path d="M378.73,431.59c2.52-2.28.9-5.84-1.1-7.76a27.07,27.07,0,0,0-12.4-6.53c-.11,0-.16.05-.17.14a.62.62,0,0,0-.54.86c2,4,3.62,8.52,6.78,11.8C373.14,432,376.35,433.74,378.73,431.59Zm-10-7.84c-1-1.95-2-3.93-3-5.84a79.3,79.3,0,0,1,7.15,4,29.4,29.4,0,0,1,3.18,2.36c1.53,1.36,5.07,7-.56,6.7C372.39,430.78,370,426.07,368.78,423.75Z" style="fill: rgb(38, 50, 56); transform-origin: 372.244px 424.941px;" id="el442xbv03uim" class="animable"></path><path d="M376.19,404.16l30.6,47.14,117.57-71.19,11.34-6.87s2.95,2.26,7.42,5.11c6.21,4,15.36,9,23.63,10.79,13.86,2.95,35,4,47.75-11,10.76-12.66,4.9-32.1,4.9-32.1l-11.15-5.63s-34.47-32.56-58-34.93c-10-1-25,5.65-39,12.73S376.19,404.16,376.19,404.16Z" style="fill: rgb(38, 50, 56); transform-origin: 498.591px 378.34px;" id="el1gkg1o4ykn9" class="animable"></path><path d="M535.7,373.24s2.95,2.26,7.42,5.11c8.8-9.3,27.24-26,27.81-26.62Z" style="fill: rgb(55, 71, 79); transform-origin: 553.315px 365.04px;" id="elbf6gor3r99i" class="animable"></path><path d="M595.56,329.44c2.08,1.64,4.08,3.38,6.13,5.06s4.1,3.22,6,5,3.75,3.74,5.56,5.69c.87.93,1.74,1.88,2.58,2.85a24.22,24.22,0,0,1,2.44,3c.06.1-.09.2-.17.14a30.32,30.32,0,0,1-2.77-2.55l-2.87-2.78c-1.85-1.78-3.74-3.52-5.59-5.3s-3.52-3.7-5.33-5.5-4-3.72-6-5.55C595.47,329.47,595.52,329.4,595.56,329.44Z" style="fill: rgb(55, 71, 79); transform-origin: 606.894px 340.313px;" id="eltd9tr6cfgy" class="animable"></path><path d="M384.13,403c2,2.47,3.88,5.12,5.74,7.71s3.74,5.22,5.58,7.85c3.7,5.25,7.43,10.48,11.05,15.79,2,2.91,3.95,5.84,5.78,8.86.08.13-.13.27-.23.15-4-5-7.64-10.31-11.32-15.56s-7.37-10.53-11-15.84c-2-2.91-4-5.81-5.81-8.83C383.85,403,384.05,402.92,384.13,403Z" style="fill: rgb(55, 71, 79); transform-origin: 398.102px 423.187px;" id="el8fxc7enorpq" class="animable"></path><path d="M469.39,413.27c5.88-4.07,19.17-11.91,25.24-15.69s12.08-7.54,18.2-11.17c1.76-1.05,3.53-2.07,5.3-3.09s3.59-1.95,5.33-3c.1-.06.17.1.07.17-1.59,1-3.11,2.13-4.68,3.17s-3,2-4.49,3c-2.95,1.91-5.92,3.78-8.89,5.66q-9,5.7-18.18,11.21c-3.47,2.07-14.14,8.18-17.67,10.14C469.41,413.75,469.19,413.41,469.39,413.27Z" style="fill: rgb(55, 71, 79); transform-origin: 496.445px 396.994px;" id="elwhn3wotr9n" class="animable"></path><path d="M436.92,364.51c5.45-4,17.78-11.49,23.45-15.13s11.47-7.39,17.23-11l17.15-10.84c5.55-3.51,11.07-7.08,16.88-10.12,3.18-1.67,6.43-3.2,9.76-4.55a62,62,0,0,1,10-3.38.09.09,0,0,1,.05.18c-2.85,1.37-5.83,2.49-8.72,3.8s-5.67,2.68-8.45,4.13c-5.77,3-11.26,6.53-16.77,10-11.45,7.2-22.88,14.43-34.39,21.51-6.45,4-19.31,12.18-26,15.78C436.94,365,436.72,364.65,436.92,364.51Z" style="fill: rgb(55, 71, 79); transform-origin: 484.174px 337.199px;" id="elc0md33gkkbv" class="animable"></path></g><defs>     <filter id="active" height="200%">         <feMorphology in="SourceAlpha" result="DILATED" operator="dilate" radius="2"></feMorphology>                <feFlood flood-color="#32DFEC" flood-opacity="1" result="PINK"></feFlood>        <feComposite in="PINK" in2="DILATED" operator="in" result="OUTLINE"></feComposite>        <feMerge>            <feMergeNode in="OUTLINE"></feMergeNode>            <feMergeNode in="SourceGraphic"></feMergeNode>        </feMerge>    </filter>    <filter id="hover" height="200%">        <feMorphology in="SourceAlpha" result="DILATED" operator="dilate" radius="2"></feMorphology>                <feFlood flood-color="#ff0000" flood-opacity="0.5" result="PINK"></feFlood>        <feComposite in="PINK" in2="DILATED" operator="in" result="OUTLINE"></feComposite>        <feMerge>            <feMergeNode in="OUTLINE"></feMergeNode>            <feMergeNode in="SourceGraphic"></feMergeNode>        </feMerge>            <feColorMatrix type="matrix" values="0   0   0   0   0                0   1   0   0   0                0   0   0   0   0                0   0   0   1   0 "></feColorMatrix>    </filter></defs></svg>